<svg width="445" height="138" viewBox="0 0 445 138" fill="none" xmlns="http://www.w3.org/2000/svg">
<circle cx="440.5" cy="68.5" r="4" stroke="#2B6477"/>
<line x1="436" y1="68.25" x2="129" y2="68.25" stroke="#2B6477" stroke-width="0.5"/>
<rect x="1.18108" y="68.9036" width="95.774" height="95.774" rx="17.9509" transform="rotate(-45 1.18108 68.9036)" fill="white" stroke="black" stroke-width="1.15812"/>
<g clip-path="url(#clip0)">
<path d="M51.9314 50.5319L48.5586 59.9772C48.3878 60.4539 48.3006 60.9564 48.3006 61.4626V74.8238L43.0568 88.8068C42.8855 89.2636 43.1169 89.7727 43.5737 89.9441C43.673 89.9813 43.7781 90.0004 43.884 90.0003H57.1339C57.5391 90.0002 57.8922 89.7244 57.9905 89.3313L59.999 81.2894V81.2951C60.414 86.1763 64.5796 90.0003 69.4827 90.0003C74.404 90.0003 78.5699 86.1552 78.9663 81.2456L78.9716 81.1783L81.0099 89.3313C81.1083 89.7245 81.4616 90.0004 81.8669 90.0003H95.1168C95.6046 90.0004 96.0002 89.605 96.0002 89.1171C96.0002 89.0111 95.9812 88.906 95.944 88.8068L90.7002 74.8238V61.4626C90.7002 60.9564 90.613 60.4539 90.4423 59.9772L87.0694 50.5324C86.4397 48.7758 84.7758 47.6031 82.9098 47.6007H81.6553L81.8669 44.9508V40.5341C81.8678 38.5837 80.2874 37.0017 78.337 37.0008C77.3848 37.0004 76.4729 37.3844 75.8079 38.0658C74.691 36.7775 72.7414 36.6385 71.4532 37.7552C71.3887 37.8111 71.3266 37.8696 71.2669 37.9307C70.0738 36.7103 68.1173 36.6884 66.897 37.8815C66.5383 38.2323 66.2703 38.6652 66.1163 39.1428C64.6164 38.328 62.74 38.8833 61.9251 40.3832C61.8338 40.5513 61.7584 40.7274 61.6997 40.9094C60.1998 40.0947 58.3234 40.6501 57.5086 42.15C57.2626 42.6029 57.1338 43.1101 57.1338 43.6257L57.1372 47.6006H56.0909C54.2251 47.6031 52.5612 48.7756 51.9314 50.5319ZM81.5142 49.3674H82.9098C84.0294 49.3691 85.0278 50.0726 85.4063 51.1263L88.779 60.5716C88.8813 60.8576 88.9336 61.159 88.9335 61.4626V74.9838C88.9335 75.0897 88.9525 75.1948 88.9896 75.2939L93.8418 88.2336H82.5562L79.167 74.6896L74.0222 60.1148C73.9525 59.9173 73.9169 59.7092 73.917 59.4998V59.1638C73.9169 58.144 74.7436 57.3172 75.7634 57.3172C76.4628 57.3172 77.1022 57.7123 77.415 58.3378L82.8435 69.1956L84.4237 68.4054L80.6033 60.7647L81.5142 49.3674ZM58.9005 43.6258C58.9005 42.8941 59.4938 42.3008 60.2255 42.3008C60.9572 42.3008 61.5505 42.8941 61.5505 43.6258V45.8341H63.3171V41.8591C63.3171 41.1274 63.9104 40.5341 64.6421 40.5341C65.3738 40.5341 65.9671 41.1274 65.9671 41.8591V44.9508H67.7338V40.0925C67.7338 39.3608 68.327 38.7675 69.0587 38.7675C69.7905 38.7675 70.3837 39.3608 70.3837 40.0925V44.0674H72.1504V40.0925C72.1504 39.3608 72.7436 38.7675 73.4754 38.7675C74.2071 38.7675 74.8003 39.3608 74.8003 40.0925V44.0674H76.567V40.5341C76.567 39.5584 77.3579 38.7675 78.3336 38.7675C79.3094 38.7675 80.1003 39.5584 80.1003 40.5341L80.1028 44.8804L79.076 57.7084L78.9956 57.5476C78.1033 55.7626 75.9331 55.039 74.1481 55.9311C72.9236 56.5432 72.1502 57.7947 72.1504 59.1638V59.4998C72.1503 59.9093 72.2196 60.3159 72.3556 60.7022L77.477 75.1981L77.6275 75.8003L77.2053 81.1046C76.8629 85.1206 73.5138 88.2126 69.4832 88.2336C65.4901 88.2336 62.0974 85.1199 61.7593 81.145L61.3205 75.9983L61.5005 75.2778L66.6452 60.7012C66.7812 60.3153 66.8506 59.909 66.8504 59.4998V59.1638C66.8504 57.1682 65.2327 55.5505 63.2372 55.5505C61.8687 55.5505 60.6177 56.3237 60.0055 57.5476L59.7864 57.9859L58.9005 47.6007V43.6258ZM58.2724 61.0143L54.5771 68.4054L56.1573 69.1956L61.5858 58.3378C62.0419 57.4256 63.1511 57.0561 64.0632 57.5122C64.6887 57.825 65.0839 58.4644 65.0838 59.1638V59.4998C65.084 59.709 65.0483 59.9167 64.9786 60.1139L59.8106 74.7695L56.4438 88.2336H45.159L50.0112 75.2939C50.0483 75.1948 50.0673 75.0897 50.0673 74.9838V61.4626C50.0672 61.159 50.1195 60.8576 50.2219 60.5716L53.5947 51.1259C53.9734 50.0725 54.9716 49.3693 56.091 49.3674H57.2813L58.2724 61.0143Z" fill="#006080"/>
<path d="M67.7025 56.5275L67.7965 56.7622L69.4373 56.1048L69.3432 55.8706C68.216 53.0513 65.2374 51.438 62.2603 52.0341L62.607 53.7663C64.749 53.338 66.8916 54.4991 67.7025 56.5275Z" fill="#006080"/>
<path d="M68.6168 59.8796C68.0307 62.8586 69.197 65.9107 71.6201 67.74L72.6795 66.3266C70.799 64.907 69.894 62.5384 70.3487 60.2265L70.3659 60.1407L68.6337 59.7922L68.6168 59.8796Z" fill="#006080"/>
</g>
<defs>
<clipPath id="clip0">
<rect width="53" height="53" fill="white" transform="translate(43 37)"/>
</clipPath>
</defs>
</svg>
