<svg width="445" height="138" viewBox="0 0 445 138" fill="none" xmlns="http://www.w3.org/2000/svg">
<circle cx="440.5" cy="69.5" r="4" stroke="#2B6477"/>
<line x1="436" y1="69.25" x2="129" y2="69.25" stroke="#2B6477" stroke-width="0.5"/>
<rect x="1.18108" y="68.9036" width="95.774" height="95.774" rx="17.9509" transform="rotate(-45 1.18108 68.9036)" fill="white" stroke="black" stroke-width="1.15812"/>
<g clip-path="url(#clip0)">
<path d="M89.7627 89.0279C82.3533 89.8495 76.4771 86.5686 76.4185 86.5354C76.2187 86.4218 75.9826 86.3911 75.761 86.4521C75.6676 86.4772 66.3467 88.9753 58.8402 87.3094C54.1606 86.2689 49.7462 82.9722 46.5231 80.5655C46.09 80.242 45.68 79.9359 45.295 79.654C44.769 79.2695 43.9328 78.9493 43.1952 78.667C42.864 78.5404 42.4104 78.367 42.3133 78.3059C42.2288 78.24 42.1827 78.1426 42.1827 78.0318V76.0225C42.2244 74.4326 48.8906 49.9685 49.9241 46.8561C49.9496 46.8194 50.0491 46.7474 50.1223 46.7126L63.3145 40.6877L67.5792 46.2399C67.7895 46.5278 67.7697 46.9297 67.5327 47.195L63.3185 51.9195C63.0427 52.2293 62.5785 52.2628 62.2902 52.0222L60.5863 50.4513C60.3869 50.2673 60.103 50.2063 59.8362 50.2552C59.5693 50.3029 59.3303 50.4934 59.2074 50.7352C59.0647 51.0154 57.7748 51.3595 56.4582 51.3692L56.0291 51.3259C55.6875 51.2851 55.3522 51.4642 55.184 51.7675C55.0158 52.0699 55.0441 52.444 55.256 52.7185C55.622 53.1916 55.907 53.5717 56.0688 53.7897L56.9123 68.1278C56.3894 70.1642 55.9103 70.7428 55.7914 70.8584C55.44 70.9696 55.1852 71.2976 55.1852 71.6854C55.1852 72.1641 55.5734 72.5523 56.0522 72.5523C57.0352 72.5523 57.871 71.2604 58.5414 68.7384C65.4361 63.5796 71.4534 68.4481 71.9253 68.8488C74.1149 71.0465 74.2507 72.5066 74.2552 72.5713C74.2657 73.0412 74.6498 73.4193 75.1221 73.4193C75.6009 73.4193 75.9891 73.0311 75.9891 72.5523C75.9891 72.353 75.9171 70.6425 73.6733 68.1715C75.7889 65.5698 78.1985 64.0717 80.8515 63.7454C85.4248 63.1821 89.2726 66.2581 89.3106 66.2888C89.6819 66.5913 90.2273 66.5359 90.5298 66.1647C90.8318 65.7943 90.7773 65.2492 90.4073 64.9463C90.2285 64.8004 85.9723 61.3758 80.6578 62.0224C77.5515 62.3993 74.7631 64.0794 72.3591 67.0195C70.4089 65.6928 64.8154 62.6904 58.5596 66.6171L57.7837 53.431C57.776 53.2887 57.7323 53.1504 57.6579 53.0291C58.4335 52.9373 59.3574 52.7347 60.0274 52.294L61.1447 53.323C62.1835 54.1957 63.7075 54.0873 64.6112 53.074L68.8259 48.3494C69.603 47.4785 69.6681 46.1619 68.9666 45.2011L64.2687 39.0844C64.0237 38.7649 63.5898 38.6566 63.2211 38.824L49.4126 45.1312C49.2683 45.1946 48.536 45.5489 48.295 46.2735C47.8041 47.747 40.4492 73.9765 40.4492 76.0197V78.0322C40.4492 78.6779 40.7391 79.2752 41.2442 79.6706C41.4969 79.8688 41.8742 80.0184 42.5761 80.2865C43.1487 80.506 43.9328 80.8061 44.2716 81.0535C44.6525 81.3321 45.0581 81.635 45.4859 81.9544C48.8348 84.4558 53.421 87.8807 58.465 89.0016C65.6444 90.5972 74.0728 88.668 75.8787 88.2131C77.0853 88.8362 81.5114 90.8964 87.3054 90.8964C88.1607 90.8964 89.0458 90.8515 89.9544 90.7504C90.4303 90.6979 90.7728 90.2693 90.7202 89.7933C90.6673 89.317 90.237 88.9713 89.7627 89.0279Z" fill="#005B79"/>
<path d="M85.5193 78.5249C85.4716 78.0911 85.1041 77.7534 84.6577 77.7534C84.1789 77.7534 83.7907 78.1416 83.7907 78.6204C83.7907 79.1994 84.2181 81.1597 89.7158 82.076C89.7639 82.0837 89.8124 82.0877 89.8593 82.0877C90.2754 82.0877 90.6426 81.7873 90.7133 81.3635C90.7918 80.8912 90.4727 80.4448 90.0008 80.366C86.1562 79.7251 85.5707 78.6402 85.5193 78.5249Z" fill="#005B79"/>
<path d="M75.9486 48.4254H78.5899V50.8815C78.5899 51.3603 78.978 51.7484 79.4568 51.7484H86.3911C86.8699 51.7484 87.2581 51.3603 87.2581 50.8815V48.4254H89.8589C90.1909 48.4254 90.4942 48.2358 90.6389 47.9366C90.7837 47.6373 90.7453 47.2819 90.5395 47.0211L83.5841 38.2089C83.2549 37.792 82.5522 37.792 82.223 38.2089L75.2681 47.0215C75.0622 47.2819 75.0238 47.6377 75.1686 47.9366C75.3133 48.2358 75.6162 48.4254 75.9486 48.4254ZM82.9036 40.1454L88.0704 46.6915H86.3911C85.9124 46.6915 85.5242 47.0797 85.5242 47.5585V50.015H80.3233V47.5585C80.3233 47.0797 79.9352 46.6915 79.4564 46.6915H77.7367L82.9036 40.1454Z" fill="#005B79"/>
<path d="M87.2581 53.482C87.2581 53.0037 86.8699 52.6155 86.3912 52.6155H79.4564C78.9777 52.6155 78.5895 53.0037 78.5895 53.482V56.0828C78.5895 56.5616 78.9777 56.9498 79.4564 56.9498H86.3912C86.8699 56.9498 87.2581 56.5616 87.2581 56.0828V53.482ZM85.5242 55.2159H80.3234V54.349H85.5242V55.2159Z" fill="#005B79"/>
<path d="M86.3912 57.8164H79.4568C78.9781 57.8164 78.5899 58.2046 78.5899 58.6834C78.5899 59.1621 78.9781 59.5503 79.4568 59.5503H86.3912C86.8699 59.5503 87.2581 59.1621 87.2581 58.6834C87.2581 58.2046 86.8699 57.8164 86.3912 57.8164Z" fill="#005B79"/>
<path d="M68.8732 82.9739C57.5192 85.4053 52.6616 77.6372 52.4603 77.306C52.2128 76.8964 51.6807 76.7646 51.2719 77.0104C50.8614 77.2571 50.7284 77.7896 50.9747 78.1997C51.0321 78.2951 52.4113 80.5595 55.3611 82.4883C57.393 83.817 60.492 85.1704 64.684 85.1704C66.0799 85.1704 67.5974 85.0204 69.2363 84.6694C69.7041 84.5691 70.0026 84.1081 69.9023 83.6399C69.802 83.172 69.3394 82.8724 68.8732 82.9739Z" fill="#005B79"/>
</g>
<defs>
<clipPath id="clip0">
<rect width="53" height="53" fill="white" transform="translate(39 38)"/>
</clipPath>
</defs>
</svg>
