<svg width="445" height="138" viewBox="0 0 445 138" fill="none" xmlns="http://www.w3.org/2000/svg">
<circle cx="440.5" cy="68.5" r="4" stroke="#2B6477"/>
<line x1="436" y1="68.25" x2="129" y2="68.25" stroke="#2B6477" stroke-width="0.5"/>
<rect x="1.18108" y="68.9036" width="95.774" height="95.774" rx="17.9509" transform="rotate(-45 1.18108 68.9036)" fill="white" stroke="black" stroke-width="1.15812"/>
<path d="M78.6562 45.125C79.2179 45.125 79.6719 44.67 79.6719 44.1094V43.0938H83.7344V41.0625H79.6719V38.0156H77.6406V43.0938H75.6094C75.3402 43.0938 75.0823 43.2004 74.8923 43.3903L74.7166 43.565C73.0561 45.2266 70.8481 46.1406 68.5 46.1406C66.1519 46.1406 63.9439 45.2266 62.2823 43.564L62.1077 43.3903C61.9177 43.2004 61.6598 43.0938 61.3906 43.0938H59.3594V38.0156H57.3281V41.0625H53.2656V43.0938H57.3281V44.1094C57.3281 44.67 57.7821 45.125 58.3438 45.125H60.9722C61.0961 45.2448 61.2281 45.3505 61.3561 45.4632C61.1855 46.9826 59.9078 48.1719 58.3438 48.1719C57.7821 48.1719 57.3281 48.6269 57.3281 49.1875V50.2031H53.2656V52.2344H57.3281V54.2656H53.2656V56.2969H57.3281V57.3125C57.3281 57.8731 57.7821 58.3281 58.3438 58.3281H60.9722C61.0961 58.448 61.2281 58.5536 61.3561 58.6663C61.1855 60.1857 59.9078 61.375 58.3438 61.375C57.7821 61.375 57.3281 61.83 57.3281 62.3906V63.4062H53.2656V65.4375H57.3281V67.4688H53.2656V69.5H57.3281V70.5156C57.3281 71.0762 57.7821 71.5312 58.3438 71.5312H60.9722C61.0961 71.6511 61.2281 71.7567 61.3561 71.8695C61.1855 73.3888 59.9078 74.5781 58.3438 74.5781C57.7821 74.5781 57.3281 75.0331 57.3281 75.5938V76.6094H53.2656V78.6406H57.3281V80.6719H53.2656V82.7031H57.3281V83.7188C57.3281 84.2794 57.7821 84.7344 58.3438 84.7344H60.9722C61.0961 84.8542 61.2281 84.9598 61.3561 85.0726C61.1855 86.592 59.9078 87.7812 58.3438 87.7812C57.7821 87.7812 57.3281 88.2363 57.3281 88.7969V89.8125H53.2656V91.8438H57.3281V93.875H53.2656V95.9062H57.3281V96.9219C57.3281 97.4825 57.7821 97.9375 58.3438 97.9375H60.9722C63.0014 99.9038 65.6674 100.984 68.5 100.984C71.3326 100.984 73.9996 99.9038 76.0278 97.9375H78.6562C79.2179 97.9375 79.6719 97.4825 79.6719 96.9219V95.9062H83.7344V93.875H79.6719V91.8438H83.7344V89.8125H79.6719V88.7969C79.6719 88.2363 79.2179 87.7812 78.6562 87.7812C77.0922 87.7812 75.8145 86.592 75.6439 85.0726C75.7719 84.9598 75.9049 84.8532 76.0278 84.7344H78.6562C79.2179 84.7344 79.6719 84.2794 79.6719 83.7188V82.7031H83.7344V80.6719H79.6719V78.6406H83.7344V76.6094H79.6719V75.5938C79.6719 75.0331 79.2179 74.5781 78.6562 74.5781C77.0922 74.5781 75.8145 73.3888 75.6439 71.8695C75.7719 71.7567 75.9049 71.6501 76.0278 71.5312H78.6562C79.2179 71.5312 79.6719 71.0762 79.6719 70.5156V69.5H83.7344V67.4688H79.6719V65.4375H83.7344V63.4062H79.6719V62.3906C79.6719 61.83 79.2179 61.375 78.6562 61.375C77.0922 61.375 75.8145 60.1857 75.6439 58.6663C75.7719 58.5536 75.9049 58.447 76.0278 58.3281H78.6562C79.2179 58.3281 79.6719 57.8731 79.6719 57.3125V56.2969H83.7344V54.2656H79.6719V52.2344H83.7344V50.2031H79.6719V49.1875C79.6719 48.6269 79.2179 48.1719 78.6562 48.1719C77.0922 48.1719 75.8145 46.9826 75.6439 45.4632C75.7719 45.3505 75.9049 45.2448 76.0278 45.125H78.6562ZM77.6406 89.7099V95.9062H75.6094C75.3402 95.9062 75.0823 96.0129 74.8923 96.2028L74.7166 96.3775C73.0561 98.0391 70.8481 98.9531 68.5 98.9531C66.1519 98.9531 63.9439 98.0391 62.2823 96.3765L62.1077 96.2028C61.9177 96.0129 61.6598 95.9062 61.3906 95.9062H59.3594V89.7099C60.0134 89.5769 60.6137 89.3067 61.1499 88.9482C63.1568 90.8119 65.7466 91.8438 68.5 91.8438C71.2544 91.8438 73.8442 90.8119 75.8501 88.9482C76.3863 89.3067 76.9866 89.5769 77.6406 89.7099ZM74.4221 87.505C72.7981 88.9909 70.7151 89.8125 68.5 89.8125C66.2859 89.8125 64.2019 88.9909 62.5779 87.505C62.8115 87.1485 63.0065 86.7666 63.1456 86.3563C64.7605 87.2795 66.5896 87.7812 68.5 87.7812C70.4104 87.7812 72.2395 87.2795 73.8534 86.3563C73.9935 86.7666 74.1875 87.1485 74.4221 87.505ZM77.6406 76.5068V82.7031H75.6094C75.3402 82.7031 75.0823 82.8098 74.8923 82.9997L74.7166 83.1744C73.0561 84.8359 70.8481 85.75 68.5 85.75C66.1519 85.75 63.9439 84.8359 62.2823 83.1734L62.1077 82.9997C61.9177 82.8098 61.6598 82.7031 61.3906 82.7031H59.3594V76.5068C60.0134 76.3737 60.6137 76.1036 61.1499 75.7451C63.1568 77.6087 65.7466 78.6406 68.5 78.6406C71.2544 78.6406 73.8442 77.6087 75.8501 75.7451C76.3863 76.1036 76.9866 76.3737 77.6406 76.5068ZM74.4221 74.3019C72.7981 75.7877 70.7151 76.6094 68.5 76.6094C66.2859 76.6094 64.2019 75.7877 62.5779 74.3019C62.8115 73.9454 63.0065 73.5635 63.1456 73.1532C64.7605 74.0764 66.5896 74.5781 68.5 74.5781C70.4104 74.5781 72.2395 74.0764 73.8534 73.1532C73.9935 73.5635 74.1875 73.9454 74.4221 74.3019ZM77.6406 63.3037V69.5H75.6094C75.3402 69.5 75.0823 69.6066 74.8923 69.7966L74.7166 69.9713C73.0561 71.6328 70.8481 72.5469 68.5 72.5469C66.1519 72.5469 63.9439 71.6328 62.2823 69.9702L62.1077 69.7966C61.9177 69.6066 61.6598 69.5 61.3906 69.5H59.3594V63.3037C60.0134 63.1706 60.6137 62.9005 61.1499 62.542C63.1568 64.4056 65.7466 65.4375 68.5 65.4375C71.2544 65.4375 73.8442 64.4056 75.8501 62.542C76.3863 62.9005 76.9866 63.1706 77.6406 63.3037ZM74.4221 61.0988C72.7981 62.5846 70.7151 63.4062 68.5 63.4062C66.2859 63.4062 64.2019 62.5846 62.5779 61.0988C62.8115 60.7423 63.0065 60.3604 63.1456 59.9501C64.7605 60.8733 66.5896 61.375 68.5 61.375C70.4104 61.375 72.2395 60.8733 73.8534 59.9501C73.9935 60.3604 74.1875 60.7423 74.4221 61.0988ZM77.6406 50.1005V56.2969H75.6094C75.3402 56.2969 75.0823 56.4035 74.8923 56.5934L74.7166 56.7681C73.0561 58.4297 70.8481 59.3438 68.5 59.3438C66.1519 59.3438 63.9439 58.4297 62.2823 56.7671L62.1077 56.5934C61.9177 56.4035 61.6598 56.2969 61.3906 56.2969H59.3594V50.1005C60.0134 49.9675 60.6137 49.6973 61.1499 49.3388C63.1568 51.2025 65.7466 52.2344 68.5 52.2344C71.2544 52.2344 73.8442 51.2025 75.8501 49.3388C76.3863 49.6973 76.9866 49.9675 77.6406 50.1005ZM74.4221 47.8956C72.7981 49.3815 70.7151 50.2031 68.5 50.2031C66.2859 50.2031 64.2019 49.3815 62.5779 47.8956C62.8115 47.5391 63.0065 47.1573 63.1456 46.747C64.7605 47.6702 66.5896 48.1719 68.5 48.1719C70.4104 48.1719 72.2395 47.6702 73.8534 46.747C73.9935 47.1573 74.1875 47.5391 74.4221 47.8956Z" fill="#2C6378"/>
</svg>
