<svg width="445" height="138" viewBox="0 0 445 138" fill="none" xmlns="http://www.w3.org/2000/svg">
<circle cx="440.5" cy="69.5" r="4" stroke="#2B6477"/>
<line x1="436" y1="69.25" x2="129" y2="69.25" stroke="#2B6477" stroke-width="0.5"/>
<rect x="1.18108" y="68.9036" width="95.774" height="95.774" rx="17.9509" transform="rotate(-45 1.18108 68.9036)" fill="white" stroke="black" stroke-width="1.15812"/>
<g clip-path="url(#clip0)">
<path d="M89.6642 58.7375H87.5978V60.804H89.6642V58.7375Z" fill="#005B79"/>
<path d="M93.7972 58.7375H91.7307V60.804H93.7972V58.7375Z" fill="#005B79"/>
<path d="M91.7307 56.6711H89.6642V58.7376H91.7307V56.6711Z" fill="#005B79"/>
<path d="M91.7307 60.8042H89.6642V62.8707H91.7307V60.8042Z" fill="#005B79"/>
<path d="M51.4361 55.6379H49.3696V57.7044H51.4361V55.6379Z" fill="#005B79"/>
<path d="M49.3696 53.5713H47.3032V55.6377H49.3696V53.5713Z" fill="#005B79"/>
<path d="M47.3019 55.6379H45.2355V57.7044H47.3019V55.6379Z" fill="#005B79"/>
<path d="M49.3696 57.7043H47.3032V59.7708H49.3696V57.7043Z" fill="#005B79"/>
<path d="M43.1689 55.6379H41.1025V57.7044H43.1689V55.6379Z" fill="#005B79"/>
<path d="M40.0699 42.2058H38.0035V44.2723H40.0699V42.2058Z" fill="#005B79"/>
<path d="M44.2023 42.2058H42.1358V44.2723H44.2023V42.2058Z" fill="#005B79"/>
<path d="M42.1357 40.1394H40.0693V42.2059H42.1357V40.1394Z" fill="#005B79"/>
<path d="M42.1357 44.2725H40.0693V46.3389H42.1357V44.2725Z" fill="#005B79"/>
<path d="M54.5358 36.0068H52.4693V38.0733H54.5358V36.0068Z" fill="#005B79"/>
<path d="M93.6191 84.5582C93.1798 83.3229 92.0091 82.4987 90.6979 82.5018H88.1985L84.4985 76.0276V64.937C84.4985 62.6544 82.6482 60.8041 80.3656 60.8041V47.3721C80.5752 41.3047 75.8267 36.2162 69.7593 36.0066C69.5063 35.9978 69.2531 35.9978 69.0001 36.0066C61.8956 36.0066 57.8413 41.8423 57.6346 47.3328C57.6346 47.3463 57.6418 47.3587 57.6418 47.3721H57.6346V60.8041C55.3521 60.8041 53.5017 62.6544 53.5017 64.937V76.0276L49.8017 82.5018H47.3025C45.5945 82.4984 44.2072 83.8799 44.2036 85.5878C44.2008 86.8986 45.0248 88.0687 46.2599 88.508C44.7676 90.1949 44.9253 92.7723 46.6123 94.2646C47.2219 94.804 47.9791 95.1486 48.7862 95.2539L68.8608 97.991C68.9538 98.0031 69.0478 98.0031 69.1408 97.991L89.2154 95.2539C91.4487 94.9622 93.0227 92.9152 92.7309 90.6819C92.6255 89.8748 92.2809 89.1176 91.7416 88.508C93.3507 87.9358 94.1914 86.1675 93.6191 84.5582ZM69.0003 38.0732C73.9081 37.8453 78.0715 41.6392 78.2993 46.5472C78.3121 46.822 78.3121 47.0974 78.2993 47.3722H76.2328C73.3811 47.3689 71.0701 45.0578 71.0667 42.2061C71.0666 41.6355 70.604 41.173 70.0332 41.1731C69.7593 41.1731 69.4967 41.282 69.303 41.4756C66.7415 44.0469 63.4109 45.7121 59.8169 46.2181C60.3851 41.5753 64.3227 38.0829 69.0003 38.0732ZM66.9338 61.8374V57.4183C67.6073 57.603 68.3019 57.6992 69.0003 57.7045C69.699 57.6986 70.3938 57.6001 71.0667 57.4121V61.8374C71.0667 62.408 71.5293 62.8706 72.0999 62.8706H74.1664V64.1921L69.0003 65.9145L63.8341 64.1921V62.8706H65.9006C66.4712 62.8706 66.9338 62.408 66.9338 61.8374ZM60.9328 48.1151C64.0006 47.5476 66.8776 46.2217 69.302 44.2581C70.2144 47.3262 73.0319 49.4322 76.2328 49.4387H76.6833C75.3918 52.9052 72.1165 55.638 69.0003 55.638C65.4118 55.638 61.7873 52.1602 60.9328 48.1151ZM73.1332 60.8042V56.5834C75.4143 55.2997 77.2246 53.3195 78.2993 50.9327V60.8042H75.1996H73.1332ZM59.7012 50.9358C60.7694 53.3276 62.5813 55.3105 64.8673 56.5896V60.8042H59.7012V50.9358ZM61.7677 62.8706V64.9371C61.768 65.3816 62.0526 65.7761 62.4744 65.9166V65.9176L68.6738 67.9841C68.886 68.0554 69.1156 68.0554 69.3278 67.9841L75.5272 65.9176C75.9488 65.7767 76.2331 65.3818 76.2328 64.9371V62.8706H79.0422L74.3927 81.4687H63.6078L58.9583 62.8706H61.7677ZM63.2762 83.5352H74.7243L78.8758 88.3779L69.0003 89.7253L59.1247 88.3821L63.2762 83.5352ZM56.6924 88.0463L54.7861 87.7869L61.2593 80.5936L61.6726 82.2354L56.6924 88.0463ZM76.3362 82.2354L76.7495 80.5936L83.2226 87.7869L81.3122 88.0463L76.3362 82.2354ZM46.2692 85.6017C46.2692 85.0311 46.7319 84.5684 47.3025 84.5684H50.4022C50.772 84.5692 51.114 84.3721 51.299 84.0518L55.4319 76.8192C55.5219 76.6619 55.5689 76.4838 55.5683 76.3026V64.9371C55.5683 64.0931 56.0817 63.3338 56.865 63.0194L58.7599 70.5982L60.6538 78.1769L53.042 86.6349H47.3025C46.7317 86.6349 46.2692 86.1723 46.2692 85.6017ZM69.0003 95.9246L49.0652 93.2052C47.9495 93.0578 47.1647 92.034 47.312 90.9184C47.4463 89.9016 48.3154 89.1432 49.341 89.1477C49.433 89.1477 49.5248 89.1543 49.6159 89.1673L56.9631 90.1696L68.6386 91.7618L74.1695 95.2189L69.0003 95.9246ZM88.9353 93.2052L77.3694 94.7829L71.9666 91.4063L81.0301 90.1665L88.3764 89.1642C89.4914 89.0078 90.5219 89.7849 90.6783 90.8999C90.6916 90.9947 90.6982 91.0904 90.698 91.1863C90.6944 92.204 89.9433 93.0643 88.9353 93.2052ZM90.698 86.6349H84.9585L77.3456 78.1758L79.2395 70.5971L81.1345 63.0184C81.9186 63.3326 82.4325 64.0924 82.4322 64.9371V76.3026C82.4316 76.4838 82.4786 76.6619 82.5686 76.8192L86.7015 84.0518C86.8865 84.3721 87.2285 84.5692 87.5984 84.5684H90.698C91.2686 84.5684 91.7313 85.0311 91.7313 85.6017C91.7313 86.1723 91.2686 86.6349 90.698 86.6349Z" fill="#005B79"/>
</g>
<defs>
<clipPath id="clip0">
<rect width="62" height="62" fill="white" transform="translate(38 36)"/>
</clipPath>
</defs>
</svg>
