<svg width="207" height="138" viewBox="0 0 207 138" fill="none" xmlns="http://www.w3.org/2000/svg">
<g clip-path="url(#clip0)">
<path d="M144.21 86.3291H139.739C139.103 86.3291 138.587 86.8449 138.587 87.4813C138.587 88.1178 139.103 88.6336 139.739 88.6336H144.21C144.9 88.6336 145.462 89.1949 145.462 89.8849C145.462 90.5749 144.9 91.1362 144.21 91.1362H132.175C130.365 91.1362 128.664 90.3386 127.507 88.9477L124.629 85.4881C123.085 83.6317 120.837 82.5445 118.432 82.4757V75.6691H122.674C124.767 75.6691 126.748 76.4693 128.253 77.9222L134.465 83.9184C134.904 84.3424 134.924 85.0522 134.51 85.5007C134.088 85.9577 133.372 85.9876 132.914 85.5673L128.037 81.0967C127.568 80.6667 126.839 80.6983 126.409 81.1674C125.979 81.6365 126.01 82.3654 126.48 82.7953L131.357 87.266C132.014 87.8689 132.847 88.1666 133.677 88.1666C134.604 88.1666 135.528 87.7955 136.204 87.0636C137.461 85.7021 137.398 83.5475 136.065 82.2605L129.853 76.2643C127.916 74.3945 125.367 73.3648 122.674 73.3648H118.208C117.775 72.3388 116.758 71.6168 115.576 71.6168H110.152C109.516 71.6168 109 72.1326 109 72.7691V81.1946C109 81.8309 109.516 82.3469 110.152 82.3469C110.789 82.3469 111.304 81.8311 111.304 81.1946V73.9212H115.576C115.88 73.9212 116.128 74.1687 116.128 74.4728V83.708C116.128 84.0121 115.88 84.2596 115.576 84.2596H114.379C113.743 84.2596 113.227 84.7754 113.227 85.4118C113.227 86.0482 113.743 86.5641 114.379 86.5641H115.576C116.774 86.5641 117.801 85.8224 118.225 84.7744C120.021 84.7846 121.708 85.5801 122.857 86.962L125.736 90.4215C127.332 92.3403 129.679 93.4407 132.175 93.4407H144.21C146.171 93.4407 147.766 91.8456 147.766 89.8849C147.766 87.9242 146.171 86.3291 144.21 86.3291Z" fill="white"/>
<path d="M166.848 54.2035C166.211 54.2035 165.695 54.7193 165.695 55.3558V63.0793H161.424C161.12 63.0793 160.872 62.8318 160.872 62.5277V53.2925C160.872 52.9884 161.12 52.7409 161.424 52.7409H162.536C163.172 52.7409 163.688 52.2251 163.688 51.5886C163.688 50.9523 163.172 50.4364 162.536 50.4364H161.424C160.226 50.4364 159.199 51.1781 158.775 52.2261C156.979 52.2159 155.292 51.4204 154.142 50.0385L151.264 46.5791C149.668 44.6603 147.321 43.5598 144.825 43.5598H132.79C130.829 43.5598 129.234 45.1549 129.234 47.1155C129.234 49.0761 130.829 50.6711 132.79 50.6711H137.711C138.348 50.6711 138.863 50.1554 138.863 49.5189C138.863 48.8825 138.348 48.3667 137.711 48.3667H132.79C132.1 48.3667 131.538 47.8054 131.538 47.1154C131.538 46.4255 132.1 45.864 132.79 45.864H144.825C146.634 45.864 148.336 46.6617 149.493 48.0526L152.371 51.512C153.915 53.3684 156.163 54.4557 158.568 54.5246V61.3311H154.325C152.233 61.3311 150.252 60.5309 148.747 59.0781L142.535 53.0818C142.096 52.6579 142.075 51.9482 142.489 51.4996C142.911 51.0424 143.628 51.0127 144.086 51.433L148.963 55.9036C149.433 56.3335 150.161 56.3019 150.591 55.8328C151.021 55.3637 150.99 54.6349 150.521 54.2049L145.643 49.7344C144.251 48.4584 142.077 48.5493 140.796 49.9368C139.539 51.2984 139.601 53.453 140.935 54.7398L147.147 60.736C149.084 62.6058 151.633 63.6356 154.325 63.6356H158.792C159.225 64.6616 160.242 65.3835 161.424 65.3835H166.848C167.484 65.3835 168 64.8678 168 64.2313V55.3555C168 54.7193 167.484 54.2035 166.848 54.2035Z" fill="white"/>
<path d="M146.202 82.7481C145.94 82.1682 145.259 81.9095 144.679 82.1715C144.096 82.4256 143.829 83.1045 144.083 83.6878C144.272 84.1215 144.695 84.3803 145.14 84.3803C145.294 84.3803 145.45 84.3494 145.6 84.2842C145.604 84.2821 145.62 84.2753 145.624 84.2732C146.204 84.0113 146.464 83.3281 146.202 82.7481Z" fill="white"/>
<path d="M149.066 80.8082C148.689 80.2966 147.965 80.1901 147.453 80.5651C146.94 80.941 146.828 81.662 147.204 82.1753C147.43 82.4836 147.78 82.647 148.135 82.647C148.371 82.647 148.609 82.5746 148.814 82.4245C148.816 82.4232 148.827 82.4152 148.829 82.4139C149.339 82.0359 149.443 81.3196 149.066 80.8082Z" fill="white"/>
<path d="M142.981 84.0416C142.849 83.4211 142.24 83.0238 141.619 83.1521C140.999 83.2753 140.593 83.8763 140.712 84.4985C140.818 85.0505 141.3 85.4346 141.842 85.4346C141.914 85.4346 141.987 85.4278 142.06 85.4138C142.067 85.4123 142.086 85.4085 142.094 85.4069C142.716 85.275 143.112 84.664 142.981 84.0416Z" fill="white"/>
<path d="M151.473 78.3021C151.001 77.876 150.272 77.9134 149.846 78.386C149.84 78.3923 149.827 78.4073 149.821 78.4136C149.406 78.8954 149.459 79.623 149.941 80.0387C150.159 80.2265 150.427 80.3185 150.693 80.3185C151.013 80.3185 151.331 80.186 151.559 79.9274C151.983 79.4548 151.945 78.7277 151.473 78.3021ZM150.83 79.2736L150.702 79.1577L150.84 79.2829L150.83 79.2736Z" fill="white"/>
<path d="M154.406 72.0578C153.797 71.8731 153.153 72.2205 152.968 72.8295C152.781 73.4377 153.122 74.0825 153.73 74.2696C153.843 74.3044 153.957 74.3209 154.07 74.3209C154.562 74.3209 155.018 74.0026 155.17 73.5072L155.175 73.4914C155.36 72.8824 155.015 72.2424 154.406 72.0578Z" fill="white"/>
<path d="M155.882 66.111C155.879 66.0964 155.876 66.0818 155.873 66.0671C155.743 65.4444 155.133 65.046 154.51 65.1759C153.89 65.3052 153.491 65.9118 153.616 66.532C153.722 67.0818 154.204 67.4665 154.746 67.4665C154.814 67.4665 154.882 67.4607 154.951 67.4483C155.577 67.3362 155.994 66.7374 155.882 66.111Z" fill="white"/>
<path d="M154.825 68.6111C154.193 68.5553 153.632 69.0237 153.576 69.6575C153.575 69.6687 153.573 69.6914 153.573 69.7026C153.535 70.3379 154.02 70.8831 154.655 70.9205C154.678 70.9219 154.701 70.9226 154.724 70.9226C155.324 70.9226 155.828 70.4586 155.872 69.8545C155.925 69.223 155.457 68.6668 154.825 68.6111Z" fill="white"/>
<path d="M153.278 75.3364C152.725 75.0229 152.021 75.2171 151.708 75.7708L151.691 75.7997C151.388 76.359 151.593 77.0634 152.152 77.3668C152.328 77.4623 152.517 77.5075 152.704 77.5075C153.111 77.5075 153.503 77.2918 153.711 76.9083L152.71 76.3388L153.712 76.9069C154.026 76.3532 153.832 75.6502 153.278 75.3364Z" fill="white"/>
<path d="M132.38 53.393C132.096 52.8238 131.403 52.593 130.835 52.8777L130.824 52.8828C130.255 53.1674 130.03 53.8569 130.314 54.426C130.516 54.8292 130.924 55.0613 131.348 55.0613C131.522 55.0613 131.699 55.0219 131.865 54.9389C132.434 54.6544 132.665 53.9623 132.38 53.393Z" fill="white"/>
<path d="M135.714 52.4324C135.564 51.8141 134.942 51.4341 134.322 51.5841C134.317 51.5854 134.301 51.5895 134.296 51.5909C133.679 51.7497 133.306 52.3785 133.465 52.9947C133.599 53.5146 134.065 53.8602 134.578 53.8602C134.673 53.8602 134.769 53.8484 134.866 53.8236C135.484 53.6737 135.864 53.0508 135.714 52.4324Z" fill="white"/>
<path d="M129.334 55.0545C128.935 54.5594 128.21 54.4816 127.714 54.8792L128.428 55.7832L127.711 54.8818C127.213 55.2782 127.131 56.003 127.527 56.5008C127.755 56.7866 128.09 56.9354 128.429 56.9354C128.681 56.9354 128.934 56.8534 129.146 56.6845L129.161 56.6723C129.656 56.273 129.732 55.5497 129.334 55.0545Z" fill="white"/>
<path d="M123.19 63.2525C122.576 63.0852 121.943 63.4469 121.776 64.0609C121.773 64.0714 121.767 64.0932 121.764 64.1038C121.615 64.722 121.994 65.3437 122.613 65.4938C122.704 65.516 122.795 65.5266 122.885 65.5266C123.402 65.5266 123.872 65.1758 124.003 64.653C124.161 64.0436 123.8 63.4187 123.19 63.2525Z" fill="white"/>
<path d="M122.456 66.6379C121.819 66.6026 121.276 67.0864 121.239 67.7216C121.238 67.7365 121.238 67.7512 121.237 67.766C121.219 68.4017 121.719 68.9314 122.355 68.9505C122.366 68.9508 122.378 68.951 122.39 68.951C123.007 68.951 123.518 68.4609 123.54 67.8405C123.569 67.2115 123.087 66.6746 122.456 66.6379Z" fill="white"/>
<path d="M124.64 60.1037C124.077 59.808 123.38 60.0252 123.085 60.5887L123.066 60.6258C122.785 61.1966 123.021 61.8859 123.591 62.167C123.755 62.2475 123.928 62.2856 124.099 62.2856C124.522 62.2856 124.929 62.0514 125.131 61.6481C125.418 61.0865 125.2 60.3974 124.64 60.1037Z" fill="white"/>
<path d="M126.721 57.3316C126.232 56.9252 125.505 56.9926 125.099 57.4821C125.093 57.4889 125.081 57.5046 125.075 57.5114C124.68 58.01 124.764 58.7334 125.263 59.1287C125.474 59.2966 125.727 59.3779 125.978 59.3779C126.316 59.3779 126.651 59.23 126.878 58.9463C127.277 58.4569 127.208 57.736 126.721 57.3316Z" fill="white"/>
<path d="M123.758 71.0386C123.646 70.4122 123.047 69.9954 122.421 70.1076C121.795 70.2199 121.378 70.8185 121.49 71.4449L121.492 71.4562C121.592 72.0131 122.076 72.4 122.622 72.4C122.69 72.4 122.759 72.394 122.828 72.3815C123.455 72.2694 123.871 71.665 123.758 71.0386Z" fill="white"/>
<path d="M142.456 62.292C140.956 62.292 139.567 62.9105 138.577 63.9541C137.586 62.9105 136.197 62.292 134.697 62.292C131.747 62.292 129.346 64.6922 129.346 67.6425C129.346 69.2345 130.049 70.7328 131.273 71.7533C131.28 71.7595 131.288 71.7656 131.295 71.7717L137.861 76.9702C138.071 77.1361 138.324 77.219 138.576 77.219C138.83 77.219 139.084 77.1353 139.294 76.968L146.139 71.5163C146.172 71.4896 146.204 71.4611 146.234 71.4309C147.248 70.4197 147.807 69.0743 147.807 67.6425C147.807 64.6922 145.407 62.292 142.456 62.292ZM144.649 69.7572L138.575 74.5957L132.738 69.9749C132.047 69.3936 131.651 68.5445 131.651 67.6428C131.651 65.963 133.017 64.5964 134.697 64.5964C135.934 64.5964 137.039 65.335 137.512 66.4779C137.691 66.9083 138.111 67.189 138.577 67.189C139.042 67.189 139.463 66.9084 139.641 66.4779C140.115 65.335 141.22 64.5964 142.456 64.5964C144.136 64.5964 145.502 65.963 145.502 67.6427C145.502 68.438 145.2 69.1866 144.649 69.7572Z" fill="white"/>
<path d="M110.152 86.5602C110.786 86.5602 111.3 86.0461 111.3 85.412C111.3 84.7779 110.786 84.2638 110.152 84.2638C109.518 84.2638 109.004 84.7779 109.004 85.412C109.004 86.0461 109.518 86.5602 110.152 86.5602Z" fill="white"/>
<path d="M166.848 52.7366C167.482 52.7366 167.996 52.2225 167.996 51.5884C167.996 50.9542 167.482 50.4402 166.848 50.4402C166.213 50.4402 165.699 50.9542 165.699 51.5884C165.699 52.2225 166.213 52.7366 166.848 52.7366Z" fill="white"/>
</g>
<mask id="path-22-outside-1" maskUnits="userSpaceOnUse" x="58.7079" y="7.41626" width="72" height="123" fill="black">
<rect fill="white" x="58.7079" y="7.41626" width="72" height="123"/>
<path fill-rule="evenodd" clip-rule="evenodd" d="M127.708 11.5155C124.98 9.83878 122.446 9.00041 119.708 9.00041C112.512 9.00041 106.722 14.791 95.1404 26.3722L77.3718 44.1409C65.7906 55.7221 60 61.5127 60 68.7083C60 75.904 65.7906 81.6946 77.3718 93.2758L95.1404 111.044C106.722 122.626 112.512 128.416 119.708 128.416C122.446 128.416 124.98 127.578 127.708 125.901C123.267 123.171 118.315 118.219 111.14 111.044L93.3718 93.2758C81.7906 81.6946 76 75.904 76 68.7083C76 61.5127 81.7906 55.7221 93.3718 44.1409L111.14 26.3722C118.315 19.1977 123.267 14.2455 127.708 11.5155Z"/>
</mask>
<path fill-rule="evenodd" clip-rule="evenodd" d="M127.708 11.5155C124.98 9.83878 122.446 9.00041 119.708 9.00041C112.512 9.00041 106.722 14.791 95.1404 26.3722L77.3718 44.1409C65.7906 55.7221 60 61.5127 60 68.7083C60 75.904 65.7906 81.6946 77.3718 93.2758L95.1404 111.044C106.722 122.626 112.512 128.416 119.708 128.416C122.446 128.416 124.98 127.578 127.708 125.901C123.267 123.171 118.315 118.219 111.14 111.044L93.3718 93.2758C81.7906 81.6946 76 75.904 76 68.7083C76 61.5127 81.7906 55.7221 93.3718 44.1409L111.14 26.3722C118.315 19.1977 123.267 14.2455 127.708 11.5155Z" fill="white"/>
<path d="M127.708 11.5155L128.314 12.5021L129.919 11.5155L128.314 10.5289L127.708 11.5155ZM95.1404 26.3722L95.9593 27.1911L95.1404 26.3722ZM77.3718 93.2758L78.1907 92.4569L77.3718 93.2758ZM95.1404 111.044L94.3215 111.863L95.1404 111.044ZM127.708 125.901L128.314 126.888L129.919 125.901L128.314 124.915L127.708 125.901ZM111.14 111.044L110.322 111.863L111.14 111.044ZM93.3718 93.2758L94.1907 92.4569L93.3718 93.2758ZM111.14 26.3722L111.959 27.1911L111.14 26.3722ZM119.708 10.1585C122.182 10.1585 124.509 10.9086 127.101 12.5021L128.314 10.5289C125.452 8.769 122.709 7.84229 119.708 7.84229V10.1585ZM95.9593 27.1911C101.773 21.3774 106.053 17.1012 109.771 14.2641C113.463 11.4474 116.465 10.1585 119.708 10.1585V7.84229C115.755 7.84229 112.264 9.44874 108.366 12.4226C104.495 15.3761 100.089 19.7859 94.3215 25.5533L95.9593 27.1911ZM78.1907 44.9598L95.9593 27.1911L94.3215 25.5533L76.5529 43.322L78.1907 44.9598ZM61.1581 68.7083C61.1581 65.4655 62.447 62.4634 65.2637 58.7717C68.1007 55.0532 72.3769 50.7735 78.1907 44.9598L76.5529 43.322C70.7854 49.0894 66.3757 53.4957 63.4222 57.3667C60.4483 61.2645 58.8419 64.7555 58.8419 68.7083H61.1581ZM78.1907 92.4569C72.3769 86.6431 68.1007 82.3634 65.2636 78.645C62.447 74.9532 61.1581 71.9511 61.1581 68.7083H58.8419C58.8419 72.6612 60.4483 76.1522 63.4222 80.05C66.3757 83.921 70.7854 88.3273 76.5529 94.0947L78.1907 92.4569ZM95.9593 110.226L78.1907 92.4569L76.5529 94.0947L94.3215 111.863L95.9593 110.226ZM119.708 127.258C116.465 127.258 113.463 125.969 109.771 123.153C106.053 120.315 101.773 116.039 95.9593 110.226L94.3215 111.863C100.089 117.631 104.495 122.041 108.366 124.994C112.264 127.968 115.755 129.574 119.708 129.574V127.258ZM127.101 124.915C124.509 126.508 122.182 127.258 119.708 127.258V129.574C122.709 129.574 125.452 128.648 128.314 126.888L127.101 124.915ZM128.314 124.915C124.019 122.274 119.18 117.446 111.959 110.226L110.322 111.863C117.45 118.992 122.516 124.069 127.101 126.888L128.314 124.915ZM111.959 110.226L94.1907 92.4569L92.5529 94.0947L110.322 111.863L111.959 110.226ZM94.1907 92.4569C88.3769 86.6431 84.1007 82.3634 81.2636 78.645C78.4469 74.9532 77.1581 71.9511 77.1581 68.7083H74.8418C74.8418 72.6612 76.4483 76.1522 79.4222 80.05C82.3757 83.921 86.7854 88.3273 92.5529 94.0947L94.1907 92.4569ZM77.1581 68.7083C77.1581 65.4655 78.4469 62.4634 81.2637 58.7717C84.1007 55.0532 88.3769 50.7735 94.1907 44.9598L92.5529 43.322C86.7854 49.0894 82.3757 53.4957 79.4222 57.3667C76.4483 61.2645 74.8418 64.7555 74.8418 68.7083H77.1581ZM94.1907 44.9598L111.959 27.1911L110.322 25.5533L92.5529 43.322L94.1907 44.9598ZM111.959 27.1911C119.18 19.9706 124.019 15.1429 128.314 12.5021L127.101 10.5289C122.516 13.348 117.45 18.4247 110.322 25.5533L111.959 27.1911Z" fill="white" mask="url(#path-22-outside-1)"/>
<rect x="70.1811" y="68.9036" width="95.774" height="95.774" rx="17.9509" transform="rotate(-45 70.1811 68.9036)" stroke="white" stroke-width="1.15812"/>
<circle cx="4.5" cy="67.5002" r="4" transform="rotate(-180 4.5 67.5002)" stroke="white"/>
<line x1="9" y1="67.7502" x2="60" y2="67.7502" stroke="white" stroke-width="0.5"/>
<defs>
<clipPath id="clip0">
<rect width="59" height="59" fill="white" transform="translate(109 39.0002)"/>
</clipPath>
</defs>
</svg>
