<svg width="206" height="138" viewBox="0 0 206 138" fill="none" xmlns="http://www.w3.org/2000/svg">
<mask id="path-1-outside-1" maskUnits="userSpaceOnUse" x="75.9036" y="7.19556" width="72" height="123" fill="black">
<rect fill="white" x="75.9036" y="7.19556" width="72" height="123"/>
<path fill-rule="evenodd" clip-rule="evenodd" d="M78.9036 126.096C81.6311 127.773 84.1656 128.611 86.9036 128.611C94.0992 128.611 99.8898 122.821 111.471 111.24L129.24 93.4709C140.821 81.8897 146.611 76.0991 146.611 68.9035C146.611 61.7078 140.821 55.9172 129.24 44.336L111.471 26.5674C99.8898 14.9862 94.0992 9.19556 86.9036 9.19556C84.1656 9.19556 81.6311 10.0339 78.9036 11.7107C83.3443 14.4406 88.2965 19.3928 95.471 26.5674L113.24 44.336C124.821 55.9172 130.611 61.7078 130.611 68.9035C130.611 76.0991 124.821 81.8897 113.24 93.4709L95.471 111.24C88.2965 118.414 83.3443 123.366 78.9036 126.096Z"/>
</mask>
<path fill-rule="evenodd" clip-rule="evenodd" d="M78.9036 126.096C81.6311 127.773 84.1656 128.611 86.9036 128.611C94.0992 128.611 99.8898 122.821 111.471 111.24L129.24 93.4709C140.821 81.8897 146.611 76.0991 146.611 68.9035C146.611 61.7078 140.821 55.9172 129.24 44.336L111.471 26.5674C99.8898 14.9862 94.0992 9.19556 86.9036 9.19556C84.1656 9.19556 81.6311 10.0339 78.9036 11.7107C83.3443 14.4406 88.2965 19.3928 95.471 26.5674L113.24 44.336C124.821 55.9172 130.611 61.7078 130.611 68.9035C130.611 76.0991 124.821 81.8897 113.24 93.4709L95.471 111.24C88.2965 118.414 83.3443 123.366 78.9036 126.096Z" fill="white"/>
<path d="M78.9036 126.096L78.2971 125.11L76.6922 126.096L78.2971 127.083L78.9036 126.096ZM111.471 111.24L110.652 110.421L111.471 111.24ZM129.24 44.336L128.421 45.1549L129.24 44.336ZM111.471 26.5674L112.29 25.7485L111.471 26.5674ZM78.9036 11.7107L78.297 10.7241L76.6922 11.7107L78.297 12.6973L78.9036 11.7107ZM95.471 26.5674L96.2899 25.7485L95.471 26.5674ZM113.24 44.336L112.421 45.1549L113.24 44.336ZM95.471 111.24L94.6521 110.421L95.471 111.24ZM86.9036 127.453C84.429 127.453 82.1023 126.703 79.5101 125.11L78.2971 127.083C81.1599 128.843 83.9022 129.77 86.9036 129.77V127.453ZM110.652 110.421C104.838 116.234 100.559 120.511 96.8402 123.348C93.1485 126.164 90.1464 127.453 86.9036 127.453V129.77C90.8564 129.77 94.3474 128.163 98.2452 125.189C102.116 122.236 106.522 117.826 112.29 112.059L110.652 110.421ZM128.421 92.652L110.652 110.421L112.29 112.059L130.059 94.2899L128.421 92.652ZM145.453 68.9035C145.453 72.1463 144.164 75.1484 141.348 78.8401C138.511 82.5586 134.235 86.8383 128.421 92.652L130.059 94.2899C135.826 88.5224 140.236 84.1162 143.189 80.2451C146.163 76.3473 147.77 72.8563 147.77 68.9035H145.453ZM128.421 45.1549C134.235 50.9687 138.511 55.2484 141.348 58.9668C144.164 62.6586 145.453 65.6607 145.453 68.9035H147.77C147.77 64.9506 146.163 61.4596 143.189 57.5618C140.236 53.6908 135.826 49.2846 130.059 43.5171L128.421 45.1549ZM110.652 27.3863L128.421 45.1549L130.059 43.5171L112.29 25.7485L110.652 27.3863ZM86.9036 10.3537C90.1464 10.3537 93.1485 11.6425 96.8402 14.4592C100.559 17.2963 104.838 21.5725 110.652 27.3863L112.29 25.7485C106.522 19.981 102.116 15.5713 98.2452 12.6178C94.3474 9.64388 90.8564 8.03744 86.9036 8.03744V10.3537ZM79.5101 12.6973C82.1023 11.1037 84.429 10.3537 86.9036 10.3537V8.03744C83.9022 8.03744 81.1599 8.96414 78.297 10.7241L79.5101 12.6973ZM78.297 12.6973C82.5927 15.338 87.4316 20.1658 94.6521 27.3863L96.2899 25.7485C89.1614 18.6199 84.0958 13.5432 79.5101 10.7241L78.297 12.6973ZM94.6521 27.3863L112.421 45.1549L114.059 43.5171L96.2899 25.7485L94.6521 27.3863ZM112.421 45.1549C118.235 50.9687 122.511 55.2484 125.348 58.9668C128.165 62.6586 129.453 65.6607 129.453 68.9035H131.77C131.77 64.9506 130.163 61.4596 127.189 57.5618C124.236 53.6908 119.826 49.2846 114.059 43.5171L112.421 45.1549ZM129.453 68.9035C129.453 72.1463 128.165 75.1484 125.348 78.8401C122.511 82.5586 118.235 86.8383 112.421 92.652L114.059 94.2899C119.826 88.5224 124.236 84.1162 127.189 80.2451C130.163 76.3473 131.77 72.8563 131.77 68.9035H129.453ZM112.421 92.652L94.6521 110.421L96.2899 112.059L114.059 94.2899L112.421 92.652ZM94.6521 110.421C87.4316 117.641 82.5927 122.469 78.2971 125.11L79.5101 127.083C84.0958 124.264 89.1614 119.187 96.2899 112.059L94.6521 110.421Z" fill="white" mask="url(#path-1-outside-1)"/>
<rect x="1.18108" y="68.9036" width="95.774" height="95.774" rx="17.9509" transform="rotate(-45 1.18108 68.9036)" stroke="white" stroke-width="1.15812"/>
<circle cx="201.5" cy="68.5002" r="4" stroke="white"/>
<line x1="197" y1="68.2502" x2="146" y2="68.2502" stroke="white" stroke-width="0.5"/>
<g clip-path="url(#clip0)">
<path d="M92.8843 68.7718C92.3456 63.3532 89.9248 58.2448 86.0677 54.3875C82.7714 51.0913 78.7368 48.9731 74.4915 48.0312V45.0537C76.2254 44.6223 77.5142 43.0528 77.5142 41.1873C77.5142 38.9902 75.7269 37.2028 73.5298 37.2028H65.0922C62.8951 37.2028 61.1077 38.9902 61.1077 41.1873C61.1077 43.0527 62.3966 44.6222 64.1304 45.0537V48.0396C59.8981 48.9854 55.8769 51.1007 52.59 54.3876C51.8706 55.1069 51.2074 55.8615 50.6002 56.6457C50.5708 56.6435 50.5414 56.6413 50.5114 56.6413H42.1603C41.5132 56.6413 40.9884 57.1659 40.9884 57.8132C40.9884 58.4604 41.5132 58.985 42.1603 58.985H49.0056C48.1464 60.4235 47.4535 61.9342 46.9262 63.4893H34.1719C33.5248 63.4893 33 64.014 33 64.6612C33 65.3085 33.5248 65.8331 34.1719 65.8331H46.264C45.9262 67.3157 45.7324 68.8245 45.6823 70.3375H40.5001C39.853 70.3375 39.3282 70.8622 39.3282 71.5094C39.3282 72.1567 39.853 72.6813 40.5001 72.6813H45.7197C45.8186 74.1982 46.0625 75.7071 46.4515 77.1857H38.8595C38.2123 77.1857 37.6876 77.7104 37.6876 78.3576C37.6876 79.0049 38.2123 79.5295 38.8595 79.5295H47.1994C48.349 82.5707 50.1456 85.4211 52.59 87.8654C56.4509 91.7263 61.5645 94.1477 66.9888 94.6836C67.7629 94.76 68.5377 94.7979 69.3113 94.7979C73.8843 94.7979 78.3991 93.4745 82.2301 90.9797C82.7724 90.6265 82.9258 89.9005 82.5726 89.3582C82.2194 88.8158 81.4934 88.6624 80.9511 89.0156C72.5653 94.4763 61.3347 93.2956 54.2472 86.2081C45.9313 77.8921 45.9313 64.3611 54.2472 56.045C62.5631 47.7291 76.0941 47.7291 84.4103 56.045C91.4884 63.1232 92.6755 74.3442 87.2329 82.7259C86.8804 83.2687 87.0347 83.9945 87.5774 84.3469C88.1205 84.6994 88.8461 84.5451 89.1985 84.0023C92.1064 79.5239 93.4154 74.115 92.8843 68.7718ZM63.4515 41.1874C63.4515 40.2827 64.1875 39.5467 65.0922 39.5467H73.5298C74.4345 39.5467 75.1705 40.2827 75.1705 41.1874C75.1705 42.0921 74.4345 42.828 73.5298 42.828H73.3196H65.3023H65.0922C64.1875 42.828 63.4515 42.092 63.4515 41.1874ZM66.4742 47.6367V45.1718H72.1477V47.6324C70.2637 47.4084 68.3578 47.4098 66.4742 47.6367Z" fill="white"/>
<path d="M85.2395 85.8643C84.9301 85.8643 84.6289 85.9897 84.4111 86.2077C84.192 86.4256 84.0676 86.728 84.0676 87.0362C84.0676 87.3444 84.192 87.6467 84.4111 87.8647C84.6289 88.0838 84.9302 88.208 85.2395 88.208C85.5477 88.208 85.8489 88.0838 86.068 87.8647C86.286 87.6467 86.4114 87.3444 86.4114 87.0362C86.4114 86.728 86.2861 86.4256 86.068 86.2077C85.8489 85.9897 85.5476 85.8643 85.2395 85.8643Z" fill="white"/>
<path d="M69.3288 52.9469C59.3047 52.9469 51.1493 61.1021 51.1493 71.1264C51.1493 81.1506 59.3047 89.3058 69.3288 89.3058C79.353 89.3058 87.5083 81.1506 87.5083 71.1264C87.5083 61.1021 79.353 52.9469 69.3288 52.9469ZM69.3288 86.962C60.5969 86.962 53.4931 79.8581 53.4931 71.1264C53.4931 62.3946 60.5969 55.2907 69.3288 55.2907C78.0607 55.2907 85.1645 62.3946 85.1645 71.1264C85.1645 79.8581 78.0607 86.962 69.3288 86.962Z" fill="white"/>
<path d="M76.7418 62.0561L70.9374 67.8604C70.452 67.6204 69.906 67.4848 69.3288 67.4848C68.7516 67.4848 68.2057 67.6204 67.7203 67.8604L65.1226 65.2627C64.6648 64.805 63.923 64.805 63.4652 65.2627C63.0075 65.7203 63.0075 66.4623 63.4652 66.92L66.0629 69.5177C65.8228 70.0031 65.6873 70.5491 65.6873 71.1262C65.6873 73.1341 67.3208 74.7678 69.3288 74.7678C71.3369 74.7678 72.9704 73.1341 72.9704 71.1262C72.9704 70.5491 72.8348 70.0031 72.5948 69.5177L78.2288 63.8837L78.3991 63.7134C78.8567 63.2558 78.8567 62.5137 78.3991 62.0561C77.9414 61.5985 77.1996 61.5985 76.7418 62.0561ZM69.3288 72.4241C68.6133 72.4241 68.0311 71.8419 68.0311 71.1263C68.0311 70.4108 68.6133 69.8286 69.3288 69.8286C70.0444 69.8286 70.6266 70.4108 70.6266 71.1263C70.6266 71.8419 70.0444 72.4241 69.3288 72.4241Z" fill="white"/>
<path d="M81.8585 69.9688H80.7728C80.1257 69.9688 79.6009 70.4934 79.6009 71.1406C79.6009 71.7879 80.1257 72.3125 80.7728 72.3125H81.8585C82.5057 72.3125 83.0304 71.7879 83.0304 71.1406C83.0304 70.4934 82.5057 69.9688 81.8585 69.9688Z" fill="white"/>
<path d="M57.8846 69.9402H56.799C56.1519 69.9402 55.6271 70.4648 55.6271 71.112C55.6271 71.7593 56.1519 72.2839 56.799 72.2839H57.8846C58.5317 72.2839 59.0565 71.7593 59.0565 71.112C59.0565 70.4648 58.5317 69.9402 57.8846 69.9402Z" fill="white"/>
<path d="M69.3431 60.8541C69.9902 60.8541 70.515 60.3294 70.515 59.6822V58.5966C70.515 57.9493 69.9902 57.4247 69.3431 57.4247C68.696 57.4247 68.1712 57.9493 68.1712 58.5966V59.6822C68.1712 60.3294 68.696 60.8541 69.3431 60.8541Z" fill="white"/>
<path d="M69.3145 81.3986C68.6674 81.3986 68.1426 81.9232 68.1426 82.5705V83.6561C68.1426 84.3033 68.6674 84.8279 69.3145 84.8279C69.9616 84.8279 70.4864 84.3033 70.4864 83.6561V82.5705C70.4864 81.9232 69.9616 81.3986 69.3145 81.3986Z" fill="white"/>
<path d="M34.1719 77.1853C33.8637 77.1853 33.5613 77.3107 33.3434 77.5286C33.1254 77.7466 33 78.0489 33 78.3571C33 78.6665 33.1253 78.9677 33.3434 79.1857C33.5614 79.4036 33.8637 79.529 34.1719 79.529C34.4801 79.529 34.7824 79.4036 35.0003 79.1857C35.2182 78.9677 35.3438 78.6654 35.3438 78.3571C35.3438 78.0489 35.2184 77.7466 35.0003 77.5286C34.7824 77.3107 34.4801 77.1853 34.1719 77.1853Z" fill="white"/>
</g>
<defs>
<clipPath id="clip0">
<rect width="60" height="60" fill="white" transform="translate(33 36.0002)"/>
</clipPath>
</defs>
</svg>
