<svg width="207" height="138" viewBox="0 0 207 138" fill="none" xmlns="http://www.w3.org/2000/svg">
<mask id="path-1-outside-1" maskUnits="userSpaceOnUse" x="58.7079" y="7.41626" width="72" height="123" fill="black">
<rect fill="white" x="58.7079" y="7.41626" width="72" height="123"/>
<path fill-rule="evenodd" clip-rule="evenodd" d="M127.708 11.5155C124.98 9.83878 122.446 9.00041 119.708 9.00041C112.512 9.00041 106.722 14.791 95.1404 26.3722L77.3718 44.1409C65.7906 55.7221 60 61.5127 60 68.7083C60 75.904 65.7906 81.6946 77.3718 93.2758L95.1404 111.044C106.722 122.626 112.512 128.416 119.708 128.416C122.446 128.416 124.98 127.578 127.708 125.901C123.267 123.171 118.315 118.219 111.14 111.044L93.3718 93.2758C81.7906 81.6946 76 75.904 76 68.7083C76 61.5127 81.7906 55.7221 93.3718 44.1409L111.14 26.3722C118.315 19.1977 123.267 14.2455 127.708 11.5155Z"/>
</mask>
<path fill-rule="evenodd" clip-rule="evenodd" d="M127.708 11.5155C124.98 9.83878 122.446 9.00041 119.708 9.00041C112.512 9.00041 106.722 14.791 95.1404 26.3722L77.3718 44.1409C65.7906 55.7221 60 61.5127 60 68.7083C60 75.904 65.7906 81.6946 77.3718 93.2758L95.1404 111.044C106.722 122.626 112.512 128.416 119.708 128.416C122.446 128.416 124.98 127.578 127.708 125.901C123.267 123.171 118.315 118.219 111.14 111.044L93.3718 93.2758C81.7906 81.6946 76 75.904 76 68.7083C76 61.5127 81.7906 55.7221 93.3718 44.1409L111.14 26.3722C118.315 19.1977 123.267 14.2455 127.708 11.5155Z" fill="white"/>
<path d="M127.708 11.5155L128.314 12.5021L129.919 11.5155L128.314 10.5289L127.708 11.5155ZM95.1404 26.3722L95.9593 27.1911L95.1404 26.3722ZM77.3718 93.2758L78.1907 92.4569L77.3718 93.2758ZM95.1404 111.044L94.3215 111.863L95.1404 111.044ZM127.708 125.901L128.314 126.888L129.919 125.901L128.314 124.915L127.708 125.901ZM111.14 111.044L110.322 111.863L111.14 111.044ZM93.3718 93.2758L94.1907 92.4569L93.3718 93.2758ZM111.14 26.3722L111.959 27.1911L111.14 26.3722ZM119.708 10.1585C122.182 10.1585 124.509 10.9086 127.101 12.5021L128.314 10.5289C125.452 8.769 122.709 7.84229 119.708 7.84229V10.1585ZM95.9593 27.1911C101.773 21.3774 106.053 17.1012 109.771 14.2641C113.463 11.4474 116.465 10.1585 119.708 10.1585V7.84229C115.755 7.84229 112.264 9.44874 108.366 12.4226C104.495 15.3761 100.089 19.7859 94.3215 25.5533L95.9593 27.1911ZM78.1907 44.9598L95.9593 27.1911L94.3215 25.5533L76.5529 43.322L78.1907 44.9598ZM61.1581 68.7083C61.1581 65.4655 62.447 62.4634 65.2637 58.7717C68.1007 55.0532 72.3769 50.7735 78.1907 44.9598L76.5529 43.322C70.7854 49.0894 66.3757 53.4957 63.4222 57.3667C60.4483 61.2645 58.8419 64.7555 58.8419 68.7083H61.1581ZM78.1907 92.4569C72.3769 86.6431 68.1007 82.3634 65.2636 78.645C62.447 74.9532 61.1581 71.9511 61.1581 68.7083H58.8419C58.8419 72.6612 60.4483 76.1522 63.4222 80.05C66.3757 83.921 70.7854 88.3273 76.5529 94.0947L78.1907 92.4569ZM95.9593 110.226L78.1907 92.4569L76.5529 94.0947L94.3215 111.863L95.9593 110.226ZM119.708 127.258C116.465 127.258 113.463 125.969 109.771 123.153C106.053 120.315 101.773 116.039 95.9593 110.226L94.3215 111.863C100.089 117.631 104.495 122.041 108.366 124.994C112.264 127.968 115.755 129.574 119.708 129.574V127.258ZM127.101 124.915C124.509 126.508 122.182 127.258 119.708 127.258V129.574C122.709 129.574 125.452 128.648 128.314 126.888L127.101 124.915ZM128.314 124.915C124.019 122.274 119.18 117.446 111.959 110.226L110.322 111.863C117.45 118.992 122.516 124.069 127.101 126.888L128.314 124.915ZM111.959 110.226L94.1907 92.4569L92.5529 94.0947L110.322 111.863L111.959 110.226ZM94.1907 92.4569C88.3769 86.6431 84.1007 82.3634 81.2636 78.645C78.4469 74.9532 77.1581 71.9511 77.1581 68.7083H74.8418C74.8418 72.6612 76.4483 76.1522 79.4222 80.05C82.3757 83.921 86.7854 88.3273 92.5529 94.0947L94.1907 92.4569ZM77.1581 68.7083C77.1581 65.4655 78.4469 62.4634 81.2637 58.7717C84.1007 55.0532 88.3769 50.7735 94.1907 44.9598L92.5529 43.322C86.7854 49.0894 82.3757 53.4957 79.4222 57.3667C76.4483 61.2645 74.8418 64.7555 74.8418 68.7083H77.1581ZM94.1907 44.9598L111.959 27.1911L110.322 25.5533L92.5529 43.322L94.1907 44.9598ZM111.959 27.1911C119.18 19.9706 124.019 15.1429 128.314 12.5021L127.101 10.5289C122.516 13.348 117.45 18.4247 110.322 25.5533L111.959 27.1911Z" fill="white" mask="url(#path-1-outside-1)"/>
<rect x="70.1811" y="68.9036" width="95.774" height="95.774" rx="17.9509" transform="rotate(-45 70.1811 68.9036)" stroke="white" stroke-width="1.15812"/>
<circle cx="4.5" cy="68.5002" r="4" transform="rotate(-180 4.5 68.5002)" stroke="white"/>
<line x1="9" y1="68.7502" x2="60" y2="68.7502" stroke="white" stroke-width="0.5"/>
<g clip-path="url(#clip0)">
<path d="M167.772 73.2171C167.77 73.1813 167.766 73.1453 167.761 73.1094L164.754 52.1835C164.703 51.8273 164.491 51.5145 164.179 51.3348C163.868 51.1552 163.491 51.1284 163.157 51.2627L149.316 56.827C148.716 57.0684 148.425 57.7511 148.666 58.3515C148.908 58.9522 149.59 59.2432 150.191 59.0018L162.646 53.9943L165.421 73.3039C165.423 73.3583 165.428 73.4129 165.437 73.4675C166.044 77.0396 165.38 80.7361 163.567 83.876C161.479 87.492 158.105 90.0763 154.064 91.1529C150.022 92.2298 145.799 91.6696 142.171 89.5752C142.146 89.5607 142.12 89.5485 142.094 89.5361C142.872 88.945 143.604 88.305 144.286 87.6204L158.006 83.9441C158.632 83.7766 159.003 83.1339 158.835 82.5087C158.668 81.8835 158.024 81.5123 157.4 81.6799L146.843 84.5086C148.003 82.7829 148.91 80.8798 149.53 78.8436L158.949 76.32C159.574 76.1525 159.945 75.5098 159.778 74.8846C159.61 74.2594 158.967 73.8882 158.343 74.0558L151.412 75.9128L154.018 71.3988L159.526 69.9232C160.151 69.7557 160.522 69.113 160.354 68.4878C160.187 67.8626 159.544 67.4914 158.919 67.659L155.676 68.5281L158.17 64.2087C158.493 63.648 158.301 62.9313 157.741 62.6078C157.18 62.2841 156.463 62.4762 156.14 63.0367L153.646 67.356L152.777 64.1128C152.609 63.4876 151.967 63.1165 151.342 63.2841C150.716 63.4515 150.345 64.0943 150.513 64.7195L151.988 70.2267L150.464 72.8679C150.509 69.1164 149.549 65.409 147.625 62.0769C145.202 57.8809 141.379 54.6222 136.855 52.8957C136.847 52.8926 136.84 52.8894 136.832 52.8863L131.529 50.734C130.929 50.4906 130.246 50.7796 130.003 51.3792C129.759 51.9791 130.048 52.6625 130.648 52.9059L135.903 55.0385C135.926 55.0494 135.951 55.0595 135.975 55.0689C140.017 56.5995 143.433 59.5044 145.595 63.2487C148.111 67.6071 148.775 72.6873 147.464 77.5539C146.254 82.0429 143.497 85.8531 139.647 88.3989L137.68 84.9922L141.944 69.0786C142.111 68.4533 141.74 67.8108 141.115 67.6432C140.489 67.4757 139.847 67.8468 139.68 68.472L136.023 82.1217L131.684 74.6064L134.642 63.5664C134.809 62.9411 134.438 62.2985 133.813 62.1309C133.188 61.9634 132.545 62.3345 132.378 62.9597L130.026 71.7356L126.606 65.8114L128.388 59.1628C128.555 58.5375 128.184 57.895 127.559 57.7274C126.933 57.5599 126.291 57.9309 126.123 58.5561L124.948 62.9407L121.708 57.3284C121.385 56.7679 120.668 56.5757 120.107 56.8995C119.547 57.223 119.355 57.9398 119.678 58.5004L122.919 64.1126L118.534 62.9378C117.909 62.7702 117.266 63.1413 117.099 63.7665C116.931 64.3918 117.302 65.0344 117.928 65.202L124.576 66.9836L127.996 72.9077L119.221 70.5564C118.595 70.3888 117.953 70.7599 117.785 71.3851C117.618 72.0104 117.989 72.653 118.614 72.8205L129.654 75.7787L133.993 83.2941L120.344 79.6368C119.718 79.4692 119.076 79.8403 118.908 80.4655C118.741 81.0908 119.112 81.7334 119.737 81.9009L135.65 86.1649L137.617 89.5712C128.761 93.9852 117.861 90.8061 112.863 82.148C110.678 78.3633 109.877 73.9078 110.608 69.6022C110.618 69.5441 110.624 69.4861 110.624 69.4283L113.971 46.1379L121.735 49.2889C122.335 49.5325 123.018 49.2435 123.261 48.6437C123.505 48.0438 123.216 47.3604 122.616 47.117L113.465 43.4026C113.131 43.2673 112.753 43.2928 112.44 43.4722C112.128 43.6516 111.915 43.965 111.864 44.322L108.282 69.2447C108.276 69.2842 108.273 69.3238 108.271 69.363C107.493 74.158 108.401 79.108 110.832 83.3195C114.748 90.1017 121.882 93.8952 129.216 93.8951C132.456 93.8951 135.733 93.1522 138.79 91.6029L140.23 94.0976C140.447 94.4735 140.841 94.6837 141.246 94.6837C141.445 94.6837 141.647 94.6331 141.831 94.5266C142.392 94.203 142.584 93.4862 142.26 92.9257L141.726 92.0006C144.316 93.345 147.14 94.0328 149.999 94.0328C151.556 94.0328 153.123 93.8292 154.668 93.4178C159.314 92.1796 163.196 89.207 165.597 85.0479C167.658 81.4779 168.428 77.2821 167.772 73.2171Z" fill="white"/>
<path d="M127.366 49.1441C127.148 48.9261 126.846 48.8008 126.538 48.8008C126.229 48.8008 125.927 48.9261 125.709 49.1441C125.491 49.3633 125.366 49.6644 125.366 49.9727C125.366 50.2821 125.491 50.5834 125.709 50.8025C125.927 51.0206 126.229 51.1459 126.538 51.1459C126.846 51.1459 127.148 51.0205 127.366 50.8025C127.585 50.5834 127.71 50.2809 127.71 49.9727C127.71 49.6645 127.585 49.3633 127.366 49.1441Z" fill="white"/>
<path d="M160.018 59.4339L160.011 59.4243C159.63 58.9006 158.897 58.7843 158.374 59.1647C157.85 59.545 157.734 60.278 158.114 60.8016L158.121 60.8111C158.35 61.1268 158.708 61.2945 159.07 61.2945C159.309 61.2945 159.55 61.2217 159.758 61.0708C160.282 60.6905 160.398 59.9576 160.018 59.4339Z" fill="white"/>
</g>
<defs>
<clipPath id="clip0">
<rect width="60" height="60" fill="white" transform="translate(108 39.0002)"/>
</clipPath>
</defs>
</svg>
