<svg width="208" height="138" viewBox="0 0 208 138" fill="none" xmlns="http://www.w3.org/2000/svg">
<mask id="path-1-outside-1" maskUnits="userSpaceOnUse" x="77" y="7.00024" width="72" height="123" fill="black">
<rect fill="white" x="77" y="7.00024" width="72" height="123"/>
<path fill-rule="evenodd" clip-rule="evenodd" d="M80 125.901C82.7275 127.578 85.262 128.416 88 128.416C95.1956 128.416 100.986 122.625 112.567 111.044L130.336 93.2756C141.917 81.6944 147.708 75.9038 147.708 68.7082C147.708 61.5125 141.917 55.7219 130.336 44.1407L112.567 26.3721C100.986 14.7909 95.1956 9.00024 88 9.00024C85.262 9.00024 82.7275 9.83862 80 11.5154C84.4407 14.2453 89.3929 19.1975 96.5675 26.3721L114.336 44.1407C125.917 55.7219 131.708 61.5125 131.708 68.7082C131.708 75.9038 125.917 81.6944 114.336 93.2756L96.5675 111.044C89.3929 118.219 84.4407 123.171 80 125.901Z"/>
</mask>
<path fill-rule="evenodd" clip-rule="evenodd" d="M80 125.901C82.7275 127.578 85.262 128.416 88 128.416C95.1956 128.416 100.986 122.625 112.567 111.044L130.336 93.2756C141.917 81.6944 147.708 75.9038 147.708 68.7082C147.708 61.5125 141.917 55.7219 130.336 44.1407L112.567 26.3721C100.986 14.7909 95.1956 9.00024 88 9.00024C85.262 9.00024 82.7275 9.83862 80 11.5154C84.4407 14.2453 89.3929 19.1975 96.5675 26.3721L114.336 44.1407C125.917 55.7219 131.708 61.5125 131.708 68.7082C131.708 75.9038 125.917 81.6944 114.336 93.2756L96.5675 111.044C89.3929 118.219 84.4407 123.171 80 125.901Z" fill="white"/>
<path d="M80 125.901L79.3935 124.914L77.7886 125.901L79.3935 126.888L80 125.901ZM112.567 111.044L111.749 110.225L112.567 111.044ZM130.336 44.1407L129.517 44.9596L130.336 44.1407ZM112.567 26.3721L113.386 25.5531L112.567 26.3721ZM80 11.5154L79.3935 10.5288L77.7886 11.5154L79.3935 12.502L80 11.5154ZM96.5675 26.3721L97.3864 25.5531L96.5675 26.3721ZM114.336 44.1407L113.517 44.9596L114.336 44.1407ZM96.5675 111.044L95.7485 110.225L96.5675 111.044ZM88 127.258C85.5255 127.258 83.1987 126.508 80.6065 124.914L79.3935 126.888C82.2563 128.647 84.9986 129.574 88 129.574V127.258ZM111.749 110.225C105.935 116.039 101.655 120.315 97.9366 123.152C94.2449 125.969 91.2428 127.258 88 127.258V129.574C91.9529 129.574 95.4439 127.968 99.3416 124.994C103.213 122.04 107.619 117.631 113.386 111.863L111.749 110.225ZM129.517 92.4567L111.749 110.225L113.386 111.863L131.155 94.0945L129.517 92.4567ZM146.55 68.7082C146.55 71.951 145.261 74.9531 142.444 78.6448C139.607 82.3633 135.331 86.643 129.517 92.4567L131.155 94.0945C136.922 88.3271 141.332 83.9209 144.286 80.0498C147.26 76.152 148.866 72.661 148.866 68.7082H146.55ZM129.517 44.9596C135.331 50.7734 139.607 55.0531 142.444 58.7715C145.261 62.4633 146.55 65.4654 146.55 68.7082H148.866C148.866 64.7553 147.26 61.2643 144.286 57.3665C141.332 53.4955 136.922 49.0892 131.155 43.3218L129.517 44.9596ZM111.749 27.191L129.517 44.9596L131.155 43.3218L113.386 25.5531L111.749 27.191ZM88 10.1584C91.2428 10.1584 94.2449 11.4472 97.9366 14.2639C101.655 17.101 105.935 21.3772 111.749 27.191L113.386 25.5531C107.619 19.7857 103.213 15.376 99.3416 12.4225C95.4439 9.44856 91.9529 7.84212 88 7.84212V10.1584ZM80.6065 12.502C83.1987 10.9084 85.5255 10.1584 88 10.1584V7.84212C84.9986 7.84212 82.2563 8.76883 79.3935 10.5288L80.6065 12.502ZM79.3935 12.502C83.6891 15.1427 88.528 19.9705 95.7485 27.191L97.3864 25.5531C90.2578 18.4246 85.1923 13.3479 80.6065 10.5288L79.3935 12.502ZM95.7485 27.191L113.517 44.9596L115.155 43.3218L97.3864 25.5531L95.7485 27.191ZM113.517 44.9596C119.331 50.7734 123.607 55.0531 126.444 58.7715C129.261 62.4633 130.55 65.4654 130.55 68.7082H132.866C132.866 64.7553 131.26 61.2643 128.286 57.3665C125.332 53.4955 120.922 49.0892 115.155 43.3218L113.517 44.9596ZM130.55 68.7082C130.55 71.951 129.261 74.9531 126.444 78.6448C123.607 82.3633 119.331 86.643 113.517 92.4567L115.155 94.0945C120.922 88.3271 125.332 83.9209 128.286 80.0498C131.26 76.152 132.866 72.661 132.866 68.7082H130.55ZM113.517 92.4567L95.7485 110.225L97.3864 111.863L115.155 94.0945L113.517 92.4567ZM95.7485 110.225C88.528 117.446 83.6891 122.274 79.3935 124.914L80.6065 126.888C85.1923 124.068 90.2578 118.992 97.3864 111.863L95.7485 110.225Z" fill="white" mask="url(#path-1-outside-1)"/>
<rect x="1.18108" y="68.9036" width="95.774" height="95.774" rx="17.9509" transform="rotate(-45 1.18108 68.9036)" stroke="white" stroke-width="1.15812"/>
<circle cx="203.5" cy="68.5002" r="4" stroke="white"/>
<line x1="199" y1="68.2502" x2="148" y2="68.2502" stroke="white" stroke-width="0.5"/>
<path d="M88.0467 86.0539L79.3098 92.0995C79.226 92.1575 79.1209 92.1786 79.0211 92.158L71.0728 90.5003C70.5901 90.3995 70.1165 90.7095 70.0157 91.1926C69.9149 91.6757 70.2249 92.149 70.708 92.2498L78.6563 93.9074C78.8011 93.9376 78.9479 93.9524 79.0943 93.9524C79.5311 93.9524 79.9638 93.8201 80.3268 93.569L89.0636 87.5234C89.4694 87.2426 89.5708 86.686 89.29 86.2803C89.0092 85.8745 88.4525 85.773 88.0467 86.0539Z" fill="white"/>
<path d="M100.955 69.0931C100.781 68.2323 100.138 67.5864 99.2784 67.407L95.751 66.6713C95.7468 66.6705 95.7428 66.6695 95.7386 66.6687L94.6439 66.4404L100.067 62.6879C100.789 62.1882 101.129 61.3431 100.955 60.4823C100.781 59.6215 100.138 58.9755 99.2785 58.7962L74.9909 53.7307C74.5079 53.6299 74.0346 53.9398 73.9337 54.423C73.833 54.9061 74.1429 55.3793 74.626 55.4801L98.9137 60.5457C99.1234 60.5894 99.1852 60.7471 99.2036 60.8372C99.2218 60.9273 99.2261 61.0967 99.05 61.2184L90.7738 66.9454L80.4676 60.783C79.7957 60.3814 78.9571 60.3748 78.2791 60.7661L60.4378 71.0609L42.0863 67.2336C41.8767 67.1899 41.8147 67.0323 41.7965 66.9421C41.7783 66.852 41.774 66.6827 41.95 66.5609L61.6907 52.9009C61.7745 52.8429 61.8797 52.8218 61.9795 52.8424L70.2206 54.5612C70.7037 54.6625 71.177 54.3521 71.2777 53.8689C71.3785 53.3858 71.0686 52.9126 70.5854 52.8118L62.3443 51.093C61.7673 50.9727 61.1584 51.0959 60.6737 51.4314L40.9331 65.0913C40.2109 65.5911 39.8706 66.4362 40.0451 67.297C40.2194 68.1578 40.8617 68.8038 41.7215 68.9831L46.3563 69.9497L40.9332 73.7022C40.211 74.202 39.8708 75.0472 40.0451 75.9078C40.2194 76.7686 40.8617 77.4146 41.7215 77.5939L46.3563 78.5605L40.9332 82.313C40.211 82.8128 39.8708 83.658 40.0451 84.5187C40.2194 85.3795 40.8617 86.0255 41.7215 86.2048L66.2101 91.3118C66.2717 91.3246 66.3329 91.3308 66.3935 91.3308C66.8077 91.3308 67.1793 91.0411 67.2672 90.6196C67.368 90.1365 67.058 89.6632 66.5749 89.5625L42.0863 84.4554C41.8767 84.4116 41.8147 84.254 41.7965 84.1639C41.7783 84.0739 41.774 83.9045 41.95 83.7826L48.7695 79.0638L78.6561 85.2966C78.801 85.3268 78.9478 85.3416 79.0942 85.3416C79.531 85.3416 79.9637 85.2094 80.3267 84.9582L92.6165 76.454L98.9136 77.7672C99.1233 77.8109 99.1852 77.9686 99.2034 78.0587C99.2217 78.1488 99.226 78.3181 99.0499 78.4399L91.6292 83.5747C91.2235 83.8555 91.1221 84.4121 91.4029 84.8179C91.5764 85.0686 91.855 85.2031 92.1384 85.2031C92.3138 85.2031 92.491 85.1516 92.6461 85.0442L100.067 79.9095C100.789 79.4098 101.129 78.5647 100.955 77.704C100.781 76.8433 100.138 76.1972 99.2784 76.0178L94.6437 75.0512L100.067 71.2987C100.789 70.799 101.129 69.9539 100.955 69.0931ZM94.6708 68.2717V72.8595L91.7686 74.8678V68.4303L92.6169 67.8434L94.6708 68.2717ZM85.5825 69.6003V79.1483L82.6802 81.1566V69.9841L85.5825 69.6003ZM87.3695 69.3638L89.9816 69.0183V76.1041L87.3695 77.9117V69.3638ZM79.1724 62.3138C79.2896 62.2461 79.4346 62.2473 79.5507 62.3166L88.1493 67.4581L64.9355 70.5288L79.1724 62.3138ZM55.4174 71.8393L58.3197 72.4445V79.2299L55.4174 78.6247V71.8393ZM53.6304 78.2521L51.0183 77.7074V70.922L53.6304 71.4667V78.2521ZM60.1068 72.8172L60.4069 72.8797C60.5065 72.9003 60.6063 72.904 60.7065 72.8908L62.7176 72.6248V80.1472L60.1068 79.6027V72.8172ZM64.5047 72.3884L67.407 72.0046V81.1251L64.5047 80.5199V72.3884ZM69.194 71.7681L71.8061 71.4226V82.0425L69.194 81.4978V71.7681ZM73.593 71.1862L76.4953 70.8023V83.0205L73.593 82.4153V71.1862ZM49.2313 70.5492V77.3346L46.3291 76.7294V72.1416L48.7695 70.4529L49.2313 70.5492ZM41.7965 75.553C41.7783 75.463 41.774 75.2935 41.95 75.1717L44.5421 73.3781V76.3566L42.0863 75.8444C41.8767 75.8008 41.8147 75.6431 41.7965 75.553ZM79.3098 83.4887C79.226 83.5466 79.1207 83.5677 79.0211 83.5472L78.2824 83.3931V70.5659L80.8933 70.2205V82.393L79.3098 83.4887ZM99.0499 69.8292L96.4578 71.6228V68.6443L98.9136 69.1565C99.1233 69.2002 99.1852 69.3579 99.2034 69.448C99.2217 69.5381 99.2261 69.7074 99.0499 69.8292Z" fill="white"/>
</svg>
