<svg width="207" height="138" viewBox="0 0 207 138" fill="none" xmlns="http://www.w3.org/2000/svg">
<mask id="path-1-outside-1" maskUnits="userSpaceOnUse" x="76" y="7.00024" width="72" height="123" fill="black">
<rect fill="white" x="76" y="7.00024" width="72" height="123"/>
<path fill-rule="evenodd" clip-rule="evenodd" d="M79 125.901C81.7275 127.578 84.262 128.416 87 128.416C94.1956 128.416 99.9862 122.625 111.567 111.044L129.336 93.2756C140.917 81.6944 146.708 75.9038 146.708 68.7082C146.708 61.5125 140.917 55.7219 129.336 44.1407L111.567 26.3721C99.9863 14.7909 94.1956 9.00024 87 9.00024C84.262 9.00024 81.7275 9.83862 79 11.5154C83.4407 14.2453 88.3929 19.1975 95.5675 26.3721L113.336 44.1407C124.917 55.7219 130.708 61.5125 130.708 68.7082C130.708 75.9038 124.917 81.6944 113.336 93.2756L95.5675 111.044C88.3929 118.219 83.4407 123.171 79 125.901Z"/>
</mask>
<path fill-rule="evenodd" clip-rule="evenodd" d="M79 125.901C81.7275 127.578 84.262 128.416 87 128.416C94.1956 128.416 99.9862 122.625 111.567 111.044L129.336 93.2756C140.917 81.6944 146.708 75.9038 146.708 68.7082C146.708 61.5125 140.917 55.7219 129.336 44.1407L111.567 26.3721C99.9863 14.7909 94.1956 9.00024 87 9.00024C84.262 9.00024 81.7275 9.83862 79 11.5154C83.4407 14.2453 88.3929 19.1975 95.5675 26.3721L113.336 44.1407C124.917 55.7219 130.708 61.5125 130.708 68.7082C130.708 75.9038 124.917 81.6944 113.336 93.2756L95.5675 111.044C88.3929 118.219 83.4407 123.171 79 125.901Z" fill="white"/>
<path d="M79 125.901L78.3935 124.914L76.7886 125.901L78.3935 126.888L79 125.901ZM111.567 111.044L110.749 110.225L111.567 111.044ZM129.336 44.1407L128.517 44.9596L129.336 44.1407ZM111.567 26.3721L112.386 25.5531L111.567 26.3721ZM79 11.5154L78.3935 10.5288L76.7886 11.5154L78.3935 12.502L79 11.5154ZM95.5675 26.3721L96.3864 25.5531L95.5675 26.3721ZM113.336 44.1407L112.517 44.9596L113.336 44.1407ZM95.5675 111.044L94.7485 110.225L95.5675 111.044ZM87 127.258C84.5255 127.258 82.1987 126.508 79.6065 124.914L78.3935 126.888C81.2563 128.647 83.9986 129.574 87 129.574V127.258ZM110.749 110.225C104.935 116.039 100.655 120.315 96.9366 123.152C93.2449 125.969 90.2428 127.258 87 127.258V129.574C90.9529 129.574 94.4439 127.968 98.3416 124.994C102.213 122.04 106.619 117.631 112.386 111.863L110.749 110.225ZM128.517 92.4567L110.749 110.225L112.386 111.863L130.155 94.0945L128.517 92.4567ZM145.55 68.7082C145.55 71.951 144.261 74.9531 141.444 78.6448C138.607 82.3633 134.331 86.643 128.517 92.4567L130.155 94.0945C135.922 88.3271 140.332 83.9209 143.286 80.0498C146.26 76.152 147.866 72.661 147.866 68.7082H145.55ZM128.517 44.9596C134.331 50.7734 138.607 55.0531 141.444 58.7715C144.261 62.4633 145.55 65.4654 145.55 68.7082H147.866C147.866 64.7553 146.26 61.2643 143.286 57.3665C140.332 53.4955 135.922 49.0892 130.155 43.3218L128.517 44.9596ZM110.749 27.191L128.517 44.9596L130.155 43.3218L112.386 25.5531L110.749 27.191ZM87 10.1584C90.2428 10.1584 93.2449 11.4472 96.9366 14.2639C100.655 17.101 104.935 21.3772 110.749 27.191L112.386 25.5531C106.619 19.7857 102.213 15.376 98.3416 12.4225C94.4439 9.44856 90.9529 7.84212 87 7.84212V10.1584ZM79.6065 12.502C82.1987 10.9084 84.5255 10.1584 87 10.1584V7.84212C83.9986 7.84212 81.2563 8.76883 78.3935 10.5288L79.6065 12.502ZM78.3935 12.502C82.6891 15.1427 87.528 19.9705 94.7485 27.191L96.3864 25.5531C89.2578 18.4246 84.1923 13.3479 79.6065 10.5288L78.3935 12.502ZM94.7485 27.191L112.517 44.9596L114.155 43.3218L96.3864 25.5531L94.7485 27.191ZM112.517 44.9596C118.331 50.7734 122.607 55.0531 125.444 58.7715C128.261 62.4633 129.55 65.4654 129.55 68.7082H131.866C131.866 64.7553 130.26 61.2643 127.286 57.3665C124.332 53.4955 119.922 49.0892 114.155 43.3218L112.517 44.9596ZM129.55 68.7082C129.55 71.951 128.261 74.9531 125.444 78.6448C122.607 82.3633 118.331 86.643 112.517 92.4567L114.155 94.0945C119.922 88.3271 124.332 83.9209 127.286 80.0498C130.26 76.152 131.866 72.661 131.866 68.7082H129.55ZM112.517 92.4567L94.7485 110.225L96.3864 111.863L114.155 94.0945L112.517 92.4567ZM94.7485 110.225C87.528 117.446 82.6891 122.274 78.3935 124.914L79.6065 126.888C84.1923 124.068 89.2578 118.992 96.3864 111.863L94.7485 110.225Z" fill="white" mask="url(#path-1-outside-1)"/>
<rect x="1.18108" y="68.9036" width="95.774" height="95.774" rx="17.9509" transform="rotate(-45 1.18108 68.9036)" stroke="white" stroke-width="1.15812"/>
<circle cx="202.5" cy="68.5002" r="4" stroke="white"/>
<line x1="198" y1="68.2502" x2="147" y2="68.2502" stroke="white" stroke-width="0.5"/>
<g clip-path="url(#clip0)">
<path d="M100.545 76.8339H103.137C103.562 76.8339 103.954 76.6026 104.159 76.2301C104.364 75.8575 104.351 75.4028 104.124 75.0431L101.642 71.1133H103.832C104.282 71.1133 104.692 70.8549 104.886 70.4489C105.08 70.0429 105.023 69.5617 104.74 69.2119L101.5 65.2026L104.192 64.331C104.636 64.1874 104.951 63.7937 104.995 63.3299C105.039 62.8659 104.802 62.4203 104.394 62.1962L97.2512 58.2835L99.8902 56.6341C100.276 56.3931 100.486 55.9504 100.43 55.4995C100.374 55.0484 100.061 54.6711 99.6277 54.5322L92.8538 52.362L93.8632 49.812C94.0042 49.4555 93.9614 49.0525 93.7484 48.7335C93.5354 48.4147 93.1794 48.2209 92.796 48.2149L84.2299 48.0811L84.6136 45.4538C84.6694 45.0717 84.5326 44.6868 84.2486 44.4255C83.9642 44.164 83.5683 44.0601 83.1935 44.1479L78.6606 45.2046C78.0327 45.3509 77.6422 45.9788 77.7883 46.6067C77.9348 47.2346 78.5628 47.6251 79.1904 47.4788L82.0557 46.811L81.7273 49.059C81.6786 49.3914 81.7757 49.7285 81.9934 49.9845C82.211 50.2402 82.5285 50.3898 82.8644 50.3951L91.0705 50.5234L90.2235 52.6634C90.1045 52.9639 90.1156 53.3001 90.2537 53.5925C90.392 53.8846 90.645 54.1064 90.9527 54.205L96.5183 55.9882L94.3236 57.3599C93.9719 57.5796 93.7633 57.9691 93.7753 58.3834C93.7871 58.7978 94.018 59.1747 94.3814 59.3738L100.897 62.9435L99.1645 63.5047C98.7987 63.6232 98.5145 63.9141 98.405 64.2828C98.2956 64.6514 98.3745 65.0504 98.616 65.3495L101.388 68.7786H99.5239C99.0986 68.7786 98.7069 69.0099 98.5015 69.3824C98.2961 69.755 98.3097 70.2095 98.5369 70.5694L101.019 74.4992H98.0345C97.5802 74.4992 97.1673 74.7626 96.9757 75.1744C96.7842 75.5861 96.8488 76.0719 97.1414 76.4191L100.859 80.83L93.4285 79.5034C93.4215 79.5021 93.4146 79.5018 93.4077 79.5007C93.4003 79.4995 93.3932 79.4977 93.3857 79.4967L79.088 77.4868C78.4516 77.3989 77.859 77.8419 77.7693 78.4804C77.6795 79.119 78.1245 79.7094 78.7629 79.799L92.0091 81.661L91.6304 90.0947H84.7714C85.1859 88.2318 86.3119 87.9614 86.5159 87.9277C86.8704 87.9081 87.1703 87.7292 87.3761 87.4386C87.5841 87.1447 87.6173 86.7732 87.5133 86.4286L86.8601 84.2633C86.7113 83.7703 86.2572 83.4329 85.7423 83.4329H66.7822C66.3527 83.4329 65.9578 83.6688 65.7542 84.0468L62.4978 90.0946H55.8521C56.6767 88.6797 58.2274 88.3233 58.3034 88.3067C58.567 88.2532 58.804 88.11 58.9744 87.9018L61.2804 85.0834C61.5189 84.7918 61.6021 84.4029 61.5039 84.0393C61.4056 83.6757 61.1377 83.3816 60.7846 83.2501L37.02 74.3922C36.4393 74.1758 36.3518 73.6496 36.3389 73.4934C36.3259 73.3373 36.3252 72.804 36.862 72.4947L40.1237 70.6142C40.4508 70.4257 40.6663 70.0907 40.7027 69.7149L41.1032 65.5667C44.3294 64.8855 47.1256 64.9177 49.4569 65.6546C48.8652 66.0433 48.3439 66.4031 47.9626 66.6719C47.4355 67.0432 47.3096 67.7717 47.6809 68.2988C48.0527 68.8259 48.7807 68.9519 49.3078 68.5804C51.576 66.9817 53.6563 65.8 54.5494 65.4775C54.7234 66.0046 54.8547 67.1909 54.5073 68.4067C54.3129 69.0871 53.9142 69.9566 53.1197 70.2348C52.511 70.4479 52.1903 71.1138 52.4033 71.7225C52.5718 72.2035 53.0229 72.5047 53.5053 72.5047C53.6332 72.5047 53.7634 72.4835 53.891 72.4388C54.7818 72.127 55.4571 71.5355 55.9508 70.8014L67.6912 78.1403C67.83 78.227 67.9856 78.2837 68.1476 78.3065L73.8579 79.1091C73.9133 79.1169 73.9679 79.1206 74.022 79.1206C74.5947 79.1206 75.0948 78.6988 75.1766 78.1155C75.2664 77.4769 74.8214 76.8865 74.183 76.7969L68.7182 76.0288L56.8562 68.6137C57.1113 67.4778 57.1129 66.3045 56.9319 65.3864C56.4898 63.1442 55.1581 63.0384 54.7579 63.0586C54.0762 63.0944 53.0374 63.5484 51.9502 64.1411C48.9559 62.6663 45.261 62.3567 40.9426 63.2167L39.9215 57.8898L41.432 59.0446C41.7214 59.2661 42.0976 59.3394 42.4493 59.2432C42.8009 59.147 43.0873 58.8922 43.2239 58.5542L45.8347 52.0862L47.2251 54.0085C47.4352 54.2989 47.7669 54.4766 48.1248 54.4908C48.4866 54.506 48.8279 54.3539 49.0599 54.081L50.8203 52.0135C51.2384 51.5225 51.1794 50.7857 50.6883 50.3676C50.1977 49.9497 49.4605 50.0088 49.0426 50.4997L48.2459 51.4354L46.489 49.0067C46.24 48.6627 45.8245 48.481 45.4019 48.532C44.98 48.5833 44.6196 48.8599 44.4604 49.2538L41.633 56.2587L38.9083 54.1753C38.5236 53.8812 37.9969 53.8548 37.5852 54.1096C37.1733 54.3642 36.9613 54.8468 37.0523 55.3224L38.8439 64.6701L38.4364 68.8917L35.6959 70.4716C34.547 71.1337 33.9019 72.366 34.012 73.6872C34.122 75.0084 34.9622 76.117 36.2046 76.58L51.644 82.3348L50.5606 85.1652C49.9703 85.2797 49.1137 85.5079 48.2602 85.9527C46.1722 87.041 45.0485 88.9349 45.0966 91.2855C45.1095 91.9209 45.6283 92.4293 46.2638 92.4293H54.2387H63.1953C63.6248 92.4293 64.0197 92.1934 64.2233 91.8154L67.4797 85.7676H77.3783L77.6474 87.3369C75.8608 88.5433 74.509 90.5106 74.4447 90.6049C74.2012 90.9625 74.1755 91.4254 74.3777 91.8079C74.58 92.1903 74.9772 92.4294 75.4098 92.4294H83.4582H92.7469C93.3715 92.4294 93.8852 91.9381 93.9131 91.3142L94.3297 82.0358L103.627 83.6957C103.696 83.708 103.765 83.7139 103.833 83.7139C104.244 83.7139 104.632 83.4954 104.843 83.13C105.089 82.7043 105.042 82.1699 104.725 81.7939L100.545 76.8339ZM53.3105 90.0943H47.5604C47.8001 89.2168 48.3706 88.5435 49.2844 88.0524C50.3516 87.4788 51.4818 87.3846 51.4887 87.3842C51.9416 87.3523 52.3349 87.0608 52.4972 86.6371L53.8319 83.1506L58.4394 84.8679L57.4014 86.1366C56.4313 86.445 54.139 87.439 53.3105 90.0943ZM82.4008 90.0944H77.9485C78.4155 89.6497 78.9368 89.2348 79.4559 88.9754C79.9161 88.7452 80.1717 88.2409 80.0845 87.7335L79.7471 85.7676H84.875L84.9563 86.0372C83.8949 86.6197 82.76 87.8452 82.4008 90.0944Z" fill="white"/>
<path d="M75.9199 47.042C75.7735 46.414 75.1457 46.0239 74.5178 46.1699L72.6859 46.5969V43.7388C72.6859 43.3139 72.4552 42.9228 72.0837 42.7172C71.712 42.5117 71.258 42.5242 70.8983 42.7498L63.5639 47.3493V43.7387C63.5639 43.2858 63.302 42.8738 62.8921 42.6816C62.4817 42.4895 61.9978 42.5518 61.6496 42.8414L56.5115 47.1179L55.94 45.1856C55.8184 44.7747 55.4817 44.4634 55.0625 44.3745C54.643 44.2853 54.2093 44.4333 53.9314 44.7597L51.471 47.6491C51.0529 48.1402 51.112 48.8771 51.6029 49.295C52.0942 49.7132 52.831 49.654 53.2487 49.163L54.3117 47.9145L54.775 49.481C54.8865 49.8577 55.18 50.153 55.5558 50.2671C55.9325 50.3815 56.3398 50.2984 56.6417 50.0473L61.2288 46.2294V49.4592C61.2288 49.8841 61.4595 50.2753 61.8311 50.4808C62.0074 50.5783 62.2019 50.6268 62.3963 50.6268C62.6121 50.6268 62.8273 50.5671 63.0165 50.4485L70.3508 45.849V48.0678C70.3508 48.4242 70.5135 48.7608 70.7925 48.9823C71.0717 49.2038 71.4364 49.2856 71.7833 49.2049L75.0479 48.444C75.6757 48.2978 76.0661 47.6699 75.9199 47.042Z" fill="white"/>
<path d="M43.2365 70.3195C42.4738 70.3195 41.8537 70.9386 41.8537 71.6996C41.8537 72.4605 42.4738 73.0797 43.2365 73.0797C43.999 73.0797 44.6194 72.4606 44.6194 71.6996C44.6192 70.9387 43.9991 70.3195 43.2365 70.3195Z" fill="white"/>
</g>
<defs>
<clipPath id="clip0">
<rect width="71" height="71" fill="white" transform="translate(34 32.0002)"/>
</clipPath>
</defs>
</svg>
