<svg width="207" height="138" viewBox="0 0 207 138" fill="none" xmlns="http://www.w3.org/2000/svg">
<mask id="path-1-outside-1" maskUnits="userSpaceOnUse" x="58.7079" y="7.41626" width="72" height="123" fill="black">
<rect fill="white" x="58.7079" y="7.41626" width="72" height="123"/>
<path fill-rule="evenodd" clip-rule="evenodd" d="M127.708 11.5155C124.98 9.83878 122.446 9.00041 119.708 9.00041C112.512 9.00041 106.722 14.791 95.1404 26.3722L77.3718 44.1409C65.7906 55.7221 60 61.5127 60 68.7083C60 75.904 65.7906 81.6946 77.3718 93.2758L95.1404 111.044C106.722 122.626 112.512 128.416 119.708 128.416C122.446 128.416 124.98 127.578 127.708 125.901C123.267 123.171 118.315 118.219 111.14 111.044L93.3718 93.2758C81.7906 81.6946 76 75.904 76 68.7083C76 61.5127 81.7906 55.7221 93.3718 44.1409L111.14 26.3722C118.315 19.1977 123.267 14.2455 127.708 11.5155Z"/>
</mask>
<path fill-rule="evenodd" clip-rule="evenodd" d="M127.708 11.5155C124.98 9.83878 122.446 9.00041 119.708 9.00041C112.512 9.00041 106.722 14.791 95.1404 26.3722L77.3718 44.1409C65.7906 55.7221 60 61.5127 60 68.7083C60 75.904 65.7906 81.6946 77.3718 93.2758L95.1404 111.044C106.722 122.626 112.512 128.416 119.708 128.416C122.446 128.416 124.98 127.578 127.708 125.901C123.267 123.171 118.315 118.219 111.14 111.044L93.3718 93.2758C81.7906 81.6946 76 75.904 76 68.7083C76 61.5127 81.7906 55.7221 93.3718 44.1409L111.14 26.3722C118.315 19.1977 123.267 14.2455 127.708 11.5155Z" fill="white"/>
<path d="M127.708 11.5155L128.314 12.5021L129.919 11.5155L128.314 10.5289L127.708 11.5155ZM95.1404 26.3722L95.9593 27.1911L95.1404 26.3722ZM77.3718 93.2758L78.1907 92.4569L77.3718 93.2758ZM95.1404 111.044L94.3215 111.863L95.1404 111.044ZM127.708 125.901L128.314 126.888L129.919 125.901L128.314 124.915L127.708 125.901ZM111.14 111.044L110.322 111.863L111.14 111.044ZM93.3718 93.2758L94.1907 92.4569L93.3718 93.2758ZM111.14 26.3722L111.959 27.1911L111.14 26.3722ZM119.708 10.1585C122.182 10.1585 124.509 10.9086 127.101 12.5021L128.314 10.5289C125.452 8.769 122.709 7.84229 119.708 7.84229V10.1585ZM95.9593 27.1911C101.773 21.3774 106.053 17.1012 109.771 14.2641C113.463 11.4474 116.465 10.1585 119.708 10.1585V7.84229C115.755 7.84229 112.264 9.44874 108.366 12.4226C104.495 15.3761 100.089 19.7859 94.3215 25.5533L95.9593 27.1911ZM78.1907 44.9598L95.9593 27.1911L94.3215 25.5533L76.5529 43.322L78.1907 44.9598ZM61.1581 68.7083C61.1581 65.4655 62.447 62.4634 65.2637 58.7717C68.1007 55.0532 72.3769 50.7735 78.1907 44.9598L76.5529 43.322C70.7854 49.0894 66.3757 53.4957 63.4222 57.3667C60.4483 61.2645 58.8419 64.7555 58.8419 68.7083H61.1581ZM78.1907 92.4569C72.3769 86.6431 68.1007 82.3634 65.2636 78.645C62.447 74.9532 61.1581 71.9511 61.1581 68.7083H58.8419C58.8419 72.6612 60.4483 76.1522 63.4222 80.05C66.3757 83.921 70.7854 88.3273 76.5529 94.0947L78.1907 92.4569ZM95.9593 110.226L78.1907 92.4569L76.5529 94.0947L94.3215 111.863L95.9593 110.226ZM119.708 127.258C116.465 127.258 113.463 125.969 109.771 123.153C106.053 120.315 101.773 116.039 95.9593 110.226L94.3215 111.863C100.089 117.631 104.495 122.041 108.366 124.994C112.264 127.968 115.755 129.574 119.708 129.574V127.258ZM127.101 124.915C124.509 126.508 122.182 127.258 119.708 127.258V129.574C122.709 129.574 125.452 128.648 128.314 126.888L127.101 124.915ZM128.314 124.915C124.019 122.274 119.18 117.446 111.959 110.226L110.322 111.863C117.45 118.992 122.516 124.069 127.101 126.888L128.314 124.915ZM111.959 110.226L94.1907 92.4569L92.5529 94.0947L110.322 111.863L111.959 110.226ZM94.1907 92.4569C88.3769 86.6431 84.1007 82.3634 81.2636 78.645C78.4469 74.9532 77.1581 71.9511 77.1581 68.7083H74.8418C74.8418 72.6612 76.4483 76.1522 79.4222 80.05C82.3757 83.921 86.7854 88.3273 92.5529 94.0947L94.1907 92.4569ZM77.1581 68.7083C77.1581 65.4655 78.4469 62.4634 81.2637 58.7717C84.1007 55.0532 88.3769 50.7735 94.1907 44.9598L92.5529 43.322C86.7854 49.0894 82.3757 53.4957 79.4222 57.3667C76.4483 61.2645 74.8418 64.7555 74.8418 68.7083H77.1581ZM94.1907 44.9598L111.959 27.1911L110.322 25.5533L92.5529 43.322L94.1907 44.9598ZM111.959 27.1911C119.18 19.9706 124.019 15.1429 128.314 12.5021L127.101 10.5289C122.516 13.348 117.45 18.4247 110.322 25.5533L111.959 27.1911Z" fill="white" mask="url(#path-1-outside-1)"/>
<rect x="70.1811" y="68.9036" width="95.774" height="95.774" rx="17.9509" transform="rotate(-45 70.1811 68.9036)" stroke="white" stroke-width="1.15812"/>
<circle cx="4.5" cy="68.5002" r="4" transform="rotate(-180 4.5 68.5002)" stroke="white"/>
<line x1="9" y1="68.7502" x2="60" y2="68.7502" stroke="white" stroke-width="0.5"/>
<g clip-path="url(#clip0)">
<path d="M125.402 80.135C125.402 77.0819 122.918 74.5979 119.865 74.5979C116.812 74.5979 114.328 77.0819 114.328 80.135C114.328 83.1881 116.812 85.6721 119.865 85.6721C122.918 85.6721 125.402 83.1881 125.402 80.135ZM115.91 80.135C115.91 77.9541 117.684 76.1799 119.865 76.1799C122.046 76.1799 123.82 77.9541 123.82 80.135C123.82 82.3159 122.046 84.0901 119.865 84.0901C117.684 84.0901 115.91 82.3159 115.91 80.135Z" fill="white"/>
<path d="M128.566 80.135C128.566 75.3372 124.663 71.4338 119.865 71.4338C115.067 71.4338 111.164 75.3372 111.164 80.135C111.164 84.9328 115.067 88.8362 119.865 88.8362C124.663 88.8362 128.566 84.9328 128.566 80.135ZM112.746 80.135C112.746 76.2095 115.94 73.0159 119.865 73.0159C123.791 73.0159 126.984 76.2095 126.984 80.135C126.984 84.0606 123.791 87.2542 119.865 87.2542C115.94 87.2542 112.746 84.0606 112.746 80.135Z" fill="white"/>
<path d="M122.238 80.135C122.238 78.8266 121.174 77.762 119.865 77.762C118.557 77.762 117.492 78.8266 117.492 80.135C117.492 81.4435 118.557 82.5081 119.865 82.5081C121.174 82.5081 122.238 81.4435 122.238 80.135ZM119.074 80.135C119.074 79.6988 119.429 79.344 119.865 79.344C120.301 79.344 120.656 79.6988 120.656 80.135C120.656 80.5712 120.301 80.926 119.865 80.926C119.429 80.926 119.074 80.5712 119.074 80.135Z" fill="white"/>
<path d="M161.209 49.0745H131.703C131.295 42.8994 126.142 38.0002 119.865 38.0002C113.323 38.0002 108 43.3229 108 49.8655V80.135C108 86.6776 113.323 92.0002 119.865 92.0002H161.209C161.646 92.0002 162 91.6462 162 91.2092V49.8655C162 49.4285 161.646 49.0745 161.209 49.0745ZM109.582 49.8655C109.582 44.1953 114.195 39.5823 119.865 39.5823C125.535 39.5823 130.148 44.1953 130.148 49.8655V74.2205C128.096 70.6667 124.256 68.2698 119.865 68.2698C115.475 68.2698 111.634 70.6667 109.582 74.2205V49.8655ZM109.582 80.135C109.582 74.4648 114.195 69.8518 119.865 69.8518C125.535 69.8518 130.148 74.4648 130.148 80.135C130.148 85.8052 125.535 90.4182 119.865 90.4182C114.195 90.4182 109.582 85.8052 109.582 80.135ZM125.78 90.4182C126.553 89.9716 127.272 89.4397 127.923 88.8362H154.881C155.318 88.8362 155.672 88.4821 155.672 88.0452C155.672 87.6082 155.318 87.2542 154.881 87.2542H129.351C130.844 85.2698 131.73 82.804 131.73 80.135V50.6565H160.418V87.2542H158.045C157.608 87.2542 157.254 87.6082 157.254 88.0452C157.254 88.4821 157.608 88.8362 158.045 88.8362H160.418V90.4182H125.78Z" fill="white"/>
</g>
<defs>
<clipPath id="clip0">
<rect width="54" height="54" fill="white" transform="translate(108 38.0002)"/>
</clipPath>
</defs>
</svg>
